<?xml version="1.0" encoding="UTF-8" standalone="no"?>
<svg
   xmlns:dc="http://purl.org/dc/elements/1.1/"
   xmlns:cc="http://creativecommons.org/ns#"
   xmlns:rdf="http://www.w3.org/1999/02/22-rdf-syntax-ns#"
   xmlns:svg="http://www.w3.org/2000/svg"
   xmlns="http://www.w3.org/2000/svg"
   xmlns:xlink="http://www.w3.org/1999/xlink"
   xmlns:sodipodi="http://sodipodi.sourceforge.net/DTD/sodipodi-0.dtd"
   xmlns:inkscape="http://www.inkscape.org/namespaces/inkscape"
   sodipodi:docname="Taiga2.svg"
   inkscape:version="1.0 (4035a4fb49, 2020-05-01)"
   id="svg1098"
   version="1.1"
   viewBox="0 0 1000 1080"
   height="1080mm"
   width="1000mm">
  <defs
     id="defs1092">
    <linearGradient
       inkscape:collect="always"
       xlink:href="#linearGradient3357"
       id="linearGradient1835"
       gradientUnits="userSpaceOnUse"
       gradientTransform="translate(6e-5,2.198e-4)"
       x1="505.67395"
       y1="586.76031"
       x2="505.67395"
       y2="755.83771" />
    <linearGradient
       id="linearGradient3357"
       inkscape:collect="always">
      <stop
         id="stop3353"
         offset="0"
         style="stop-color:#649c3e;stop-opacity:1" />
      <stop
         id="stop3355"
         offset="1"
         style="stop-color:#43ac0f;stop-opacity:1" />
    </linearGradient>
    <linearGradient
       inkscape:collect="always"
       xlink:href="#linearGradient1069"
       id="linearGradient970"
       x1="517.87946"
       y1="796.04077"
       x2="517.87946"
       y2="1081.1722"
       gradientUnits="userSpaceOnUse"
       gradientTransform="translate(6e-5,2.198e-4)" />
    <linearGradient
       id="linearGradient1069"
       inkscape:collect="always">
      <stop
         id="stop1065"
         offset="0"
         style="stop-color:#477f18;stop-opacity:1" />
      <stop
         id="stop1067"
         offset="1"
         style="stop-color:#45ab00;stop-opacity:1" />
    </linearGradient>
  </defs>
  <sodipodi:namedview
     inkscape:snap-global="true"
     inkscape:window-maximized="1"
     inkscape:window-y="-8"
     inkscape:window-x="-8"
     inkscape:window-height="1017"
     inkscape:window-width="1920"
     inkscape:snap-page="true"
     showgrid="false"
     inkscape:document-rotation="0"
     inkscape:current-layer="layer1"
     inkscape:document-units="mm"
     inkscape:cy="2854.6137"
     inkscape:cx="2439.7333"
     inkscape:zoom="0.24748737"
     inkscape:pageshadow="2"
     inkscape:pageopacity="0.0"
     borderopacity="1.0"
     bordercolor="#666666"
     pagecolor="#ffffff"
     id="base" />
  <metadata
     id="metadata1095">
    <rdf:RDF>
      <cc:Work
         rdf:about="">
        <dc:format>image/svg+xml</dc:format>
        <dc:type
           rdf:resource="http://purl.org/dc/dcmitype/StillImage" />
        <dc:title></dc:title>
      </cc:Work>
    </rdf:RDF>
  </metadata>
  <g
     id="layer1"
     inkscape:groupmode="layer"
     inkscape:label="Layer 1">
    <path
       id="path952"
       d="m 6.73526,395.87933 52.38482,17.96053 86.06079,21.70229 42.65622,-26.19243 47.14636,14.96711 56.87494,0.74834 74.08712,53.13318 47.89469,-36.66937 84.56408,17.96052 172.12157,-32.9276 220.01625,29.93416 115.2467,-30.68254 -12.7221,156.40614 -988.57651,-2.99342 z"
       style="display:inline;fill:#265800;fill-opacity:1;stroke:none;stroke-width:0.264583px;stroke-linecap:butt;stroke-linejoin:miter;stroke-opacity:1" />
    <path
       sodipodi:nodetypes="cccccc"
       id="path1832"
       d="m 6e-5,563.60672 c 168.56092,11.06215 343.20837,7.28779 499.24832,16.03531 C 667.26883,571.1029 829.3579,557.28747 1000,563.60672 V 1080 H 6e-5 Z"
       style="display:inline;fill:url(#linearGradient1835);fill-opacity:1;stroke:none;stroke-width:0.264999;stroke-linecap:butt;stroke-linejoin:miter;stroke-miterlimit:4;stroke-dasharray:none;stroke-opacity:1" />
    <path
       style="display:inline;fill:none;stroke:none;stroke-width:0.264583px;stroke-linecap:butt;stroke-linejoin:miter;stroke-opacity:1"
       d="M 1000,563.60672 H 6e-5"
       id="path1686"
       sodipodi:nodetypes="cc" />
    <path
       id="path115"
       d="M 6e-5,751.15273 H 1000 Z"
       style="display:inline;fill:none;stroke:none;stroke-width:0.264583px;stroke-linecap:butt;stroke-linejoin:miter;stroke-opacity:1"
       sodipodi:nodetypes="ccc" />
    <path
       style="display:inline;fill:url(#linearGradient970);fill-opacity:1;stroke:none;stroke-width:0.264999;stroke-linecap:butt;stroke-linejoin:miter;stroke-miterlimit:4;stroke-dasharray:none;stroke-opacity:1"
       d="m 6e-5,751.15273 c 0,0 126.23259,-0.64868 218.98712,3.76817 92.75451,4.4169 190.16291,-7.98044 283.46846,-2.0882 42.19157,2.66438 150.58347,-7.51927 225.94353,-7.97555 C 818.9555,744.30888 1000,751.15273 1000,751.15273 V 1080 H 6e-5 Z"
       id="path117"
       sodipodi:nodetypes="cssacccc" />
    <path
       sodipodi:nodetypes="cc"
       id="path3395"
       d="M 1000,563.60672 H 6e-5"
       style="display:inline;fill:none;stroke:none;stroke-width:0.264583px;stroke-linecap:butt;stroke-linejoin:miter;stroke-opacity:1" />
    <path
       sodipodi:nodetypes="ccc"
       style="display:inline;fill:none;stroke:none;stroke-width:0.264583px;stroke-linecap:butt;stroke-linejoin:miter;stroke-opacity:1"
       d="M 6e-5,751.15273 H 1000 Z"
       id="path3397" />
    <path
       style="display:inline;fill:#8f5e0d;fill-opacity:1;stroke:none;stroke-width:0.418973px;stroke-linecap:butt;stroke-linejoin:miter;stroke-opacity:1"
       d="m -16.32312,568.53705 12.67789,-4.80682 3.33627,-25.63627 10.67609,0.80113 4.00353,23.2329 10.67611,8.01132 z"
       id="path3409"
       sodipodi:nodetypes="ccccccc" />
    <path
       style="display:inline;fill:#1d6f00;fill-opacity:1;stroke:none;stroke-width:0.382855px;stroke-linecap:butt;stroke-linejoin:miter;stroke-opacity:1"
       d="m -32.38457,540.47801 20.04327,-36.07787 -9.35353,-32.06924 15.36649,-32.73732 0.66812,-26.72435 11.35785,-29.39679 5.34486,-14.0303 10.68975,14.69842 4.67676,26.05625 -0.6681,30.06489 14.03029,28.06057 -12.02597,33.40545 14.69839,40.75462 z"
       id="path3411"
       sodipodi:nodetypes="cccccccccccccc" />
    <path
       style="display:inline;fill:#8f5e0d;fill-opacity:1;stroke:none;stroke-width:0.382855px;stroke-linecap:butt;stroke-linejoin:miter;stroke-opacity:1"
       d="m 97.74162,579.09578 20.04327,-7.3492 8.68541,-21.3795 h 16.70273 l 5.34486,19.37517 13.36219,10.02162 z"
       id="path3413"
       sodipodi:nodetypes="ccccccc" />
    <path
       style="display:inline;fill:#1d6f00;fill-opacity:1;stroke:none;stroke-width:0.455782px;stroke-linecap:butt;stroke-linejoin:miter;stroke-opacity:1"
       d="m 136.36467,554.53485 -31.68744,3.18145 10.91244,-33.97811 -7.85823,-29.65129 24.65641,-43.74523 11.93051,-42.94984 11.13515,46.13127 13.52124,37.38231 -11.13515,36.58693 8.46271,32.13283 z"
       id="path3415"
       sodipodi:nodetypes="ccccccccccc" />
    <path
       style="display:inline;fill:#8f5e0d;fill-opacity:1;stroke:none;stroke-width:0.382855px;stroke-linecap:butt;stroke-linejoin:miter;stroke-opacity:1"
       d="m 196.7213,580.33172 16.84571,-12.25142 8.42284,-22.97142 h 10.71998 l 4.59428,23.73715 9.18858,9.95426 z"
       id="path3417" />
    <path
       style="display:inline;fill:#1d6f00;fill-opacity:1;stroke:none;stroke-width:0.382855px;stroke-linecap:butt;stroke-linejoin:miter;stroke-opacity:1"
       d="m 227.61694,550.56433 -13.53604,5.95585 -18.95045,-26.53062 22.74054,-18.95047 -18.95044,-35.19368 19.49188,-30.86216 -8.66306,-30.86214 22.74054,-13.53606 17.86755,13.53606 -12.45314,32.48647 14.61891,27.07208 -14.61891,36.27657 15.7018,12.99456 -14.07747,33.02794 z"
       id="path3419" />
    <path
       style="display:inline;fill:#8f5e0d;fill-opacity:1;stroke:none;stroke-width:0.382855px;stroke-linecap:butt;stroke-linejoin:miter;stroke-opacity:1"
       d="m 332.02889,575.11059 7.65714,-16.30563 13.78286,-0.76573 3.48909,17.80236 9.94257,5.41684 -46.96445,-0.5755 z"
       id="path3421"
       sodipodi:nodetypes="ccccccc" />
    <path
       style="display:inline;fill:#8f5e0d;fill-opacity:1;stroke:none;stroke-width:0.382855px;stroke-linecap:butt;stroke-linejoin:miter;stroke-opacity:1"
       d="m 345.42889,462.32502 4.97713,-29.09713 4.59428,29.86286 z"
       id="path3425" />
    <path
       style="display:inline;fill:#1d6f00;fill-opacity:1;stroke:none;stroke-width:0.382855px;stroke-linecap:butt;stroke-linejoin:miter;stroke-opacity:1"
       d="m 344.28031,562.63353 -26.79999,2.29714 21.43998,-33.69143 -11.48569,-49.77138 5.74283,-25.26856 17.61144,5.36001 15.69714,-4.5943 4.59428,26.03428 -13.78286,50.53711 18.37714,29.09713 z"
       id="path3423"
       sodipodi:nodetypes="ccccccccccc" />
    <path
       style="display:inline;fill:#1d6f00;fill-opacity:1;stroke:none;stroke-width:0.382855px;stroke-linecap:butt;stroke-linejoin:miter;stroke-opacity:1"
       d="m 350.78888,441.65074 -13.01713,-7.65712 13.01713,-11.10284 11.10284,11.48569 z"
       id="path3427" />
    <path
       style="display:inline;fill:#8f5e0d;fill-opacity:1;stroke:none;stroke-width:0.24043px;stroke-linecap:butt;stroke-linejoin:miter;stroke-opacity:1"
       d="m 421.79058,582.06183 21.65511,-9.696 4.27086,-88.18745 14.48802,0.46175 1.52506,90.95769 8.38782,6.46401 z"
       id="path1877"
       sodipodi:nodetypes="ccccccc" />
    <path
       style="display:inline;fill:#1d6f00;fill-opacity:1;stroke:none;stroke-width:0.264583px;stroke-linecap:butt;stroke-linejoin:miter;stroke-opacity:1"
       d="m 455.16295,525.81584 -28.70052,12.6111 -9.76503,-21.32754 -15.9232,-21.17669 16.36702,-32.80254 34.60512,-17.46364 45.49933,23.11808 8.16293,33.6559 -13.96132,23.60464 -15.82214,12.64195 z"
       id="path1879"
       sodipodi:nodetypes="ccccccccccc" />
    <path
       style="display:inline;fill:#8f5e0d;fill-opacity:1;stroke:none;stroke-width:0.264583px;stroke-linecap:butt;stroke-linejoin:miter;stroke-opacity:1"
       d="m 532.82859,586.7098 25.44405,-6.73521 2.99342,-32.92761 14.9671,-3.74176 2.99342,35.17267 19.45722,8.23191 z"
       id="path3439" />
    <path
       style="display:inline;fill:#1d6f00;fill-opacity:1;stroke:none;stroke-width:0.264583px;stroke-linecap:butt;stroke-linejoin:miter;stroke-opacity:1"
       d="m 561.26608,550.78875 -20.95394,-6.73519 11.97369,-30.68253 -7.48358,-22.45064 13.47042,-38.16609 -5.98684,-13.47039 17.9605,-26.1924 20.2056,21.70226 -10.47698,14.96711 13.47039,40.41116 -10.47697,23.94733 10.47695,29.93419 z"
       id="path3441"
       sodipodi:nodetypes="ccccccccccccc" />
    <path
       sodipodi:nodetypes="ccccccc"
       id="path3443"
       d="m 642.22901,584.25248 12.67788,-4.80679 3.33629,-25.6363 10.67607,0.80113 4.00354,23.2329 10.6761,8.01135 z"
       style="display:inline;fill:#8f5e0d;fill-opacity:1;stroke:none;stroke-width:0.418973px;stroke-linecap:butt;stroke-linejoin:miter;stroke-opacity:1" />
    <path
       sodipodi:nodetypes="cccccccccccccc"
       id="path3445"
       d="m 626.16755,556.19344 20.04328,-36.07784 -9.35353,-32.06925 15.36647,-32.73732 0.66813,-26.72434 11.35785,-29.3968 5.34487,-14.0303 10.68975,14.6984 4.67675,26.05625 -0.6681,30.06489 14.0303,28.06057 -12.02598,33.40545 14.6984,40.75462 z"
       style="display:inline;fill:#1d6f00;fill-opacity:1;stroke:none;stroke-width:0.382855px;stroke-linecap:butt;stroke-linejoin:miter;stroke-opacity:1" />
    <path
       style="display:inline;fill:#8f5e0d;fill-opacity:1;stroke:none;stroke-width:0.264583px;stroke-linecap:butt;stroke-linejoin:miter;stroke-opacity:1"
       d="m 732.6393,580.72294 12.72201,-7.48353 -0.081,-64.93986 -15.04786,7.31326 0.28829,-2.85977 15.45154,-12.76033 1.63407,-37.50979 8.98025,-2.24507 0.5032,12.74649 13.6048,-0.0312 1.1891,2.94585 -14.8891,1.16078 4.0822,96.92804 14.2187,8.23187 z"
       id="path3447"
       sodipodi:nodetypes="ccccccccccccccc" />
    <path
       style="display:inline;fill:#1d6f00;fill-opacity:1;stroke:none;stroke-width:0.309483px;stroke-linecap:butt;stroke-linejoin:miter;stroke-opacity:1"
       d="m 753.8858,466.61471 -17.50699,3.06374 -23.19673,-14.00556 35.88927,-28.44882 36.32695,19.25764 -8.7535,18.82 z"
       id="path3449" />
    <path
       style="display:inline;fill:#8f5e0d;fill-opacity:1;stroke:none;stroke-width:0.303866px;stroke-linecap:butt;stroke-linejoin:miter;stroke-opacity:1"
       d="m 820.1284,574.05475 12.1546,-3.03866 6.0774,-18.83976 9.7237,1.21547 4.2542,17.01654 7.2928,2.43094 z"
       id="path3453" />
    <path
       style="display:inline;fill:#8f5e0d;fill-opacity:1;stroke:none;stroke-width:0.303866px;stroke-linecap:butt;stroke-linejoin:miter;stroke-opacity:1"
       d="m 834.4101,485.02172 6.989,-26.7403 5.1657,26.13255 z"
       id="path3457" />
    <path
       style="display:inline;fill:#1d6f00;fill-opacity:1;stroke:none;stroke-width:0.388107px;stroke-linecap:butt;stroke-linejoin:miter;stroke-opacity:1"
       d="m 838.0415,555.2842 -16.3005,3.88107 7.726,-36.48207 1.3684,-44.06231 11.8634,5.25153 9.3973,-3.30444 -0.083,38.23412 10.867,35.70589 z"
       id="path3455"
       sodipodi:nodetypes="ccccccccc" />
    <path
       style="display:inline;fill:#a26b0f;fill-opacity:1;stroke:none;stroke-width:0.286509px;stroke-linecap:butt;stroke-linejoin:miter;stroke-opacity:1"
       d="m 25.38628,591.14366 14.64902,-6.34095 7.07261,-36.99712 16.60339,-0.68664 3.28031,37.71601 7.72703,6.56254 z"
       id="path3459" />
    <path
       style="display:inline;fill:#a26b0f;fill-opacity:1;stroke:none;stroke-width:0.226477px;stroke-linecap:butt;stroke-linejoin:miter;stroke-opacity:1"
       d="m 500.40377,593.57417 13.04216,-7.1139 6.71867,-102.75636 12.64695,1.18565 -0.39524,100.78026 9.48521,7.90435 z"
       id="path1919" />
    <path
       style="display:inline;fill:#238400;fill-opacity:1;stroke:none;stroke-width:0.226477px;stroke-linecap:butt;stroke-linejoin:miter;stroke-opacity:1"
       d="m 520.40844,493.12979 -17.42303,9.81329 -22.17965,-10.60124 2.7532,-31.5295 9.77511,-26.4478 -13.0928,-26.04693 43.75788,-19.33888 24.67062,21.39059 24.68274,-5.58282 1.53996,26.67297 13.63083,14.26874 -25.53348,30.30318 13.04247,9.14947 -26.74786,13.63104 -16.54713,-6.45834 z"
       id="path1921" />
    <path
       style="display:inline;fill:#238400;fill-opacity:1;stroke:none;stroke-width:0.286509px;stroke-linecap:butt;stroke-linejoin:miter;stroke-opacity:1"
       d="m 58.17541,551.93595 -30.06,8.12528 17.97863,-50.6389 -14.60826,-48.14422 26.07365,-76.7816 29.31978,71.0497 -17.88393,52.92902 12.91435,48.78779 z"
       id="path3477"
       sodipodi:nodetypes="ccccccccc" />
    <path
       sodipodi:nodetypes="ccccccc"
       id="path878"
       d="m 150.2834,601.13305 16.40416,-11.64166 15.87501,-34.925 11.64166,-0.52917 6.87917,34.39583 12.7,12.17084 z"
       style="display:inline;fill:#a26b0f;fill-opacity:1;stroke:none;stroke-width:0.264583px;stroke-linecap:butt;stroke-linejoin:miter;stroke-opacity:1" />
    <path
       id="path880"
       d="m 186.26673,560.38722 -33.3375,-3.70417 26.45833,-48.15416 -16.40416,-61.9125 30.69166,-67.20417 25.4,66.14583 -19.57916,64.02917 16.93333,51.85833 z"
       style="display:inline;fill:#238400;fill-opacity:1;stroke:none;stroke-width:0.264583px;stroke-linecap:butt;stroke-linejoin:miter;stroke-opacity:1" />
    <path
       id="path882"
       d="m 260.35006,593.72472 10.05417,-6.35 7.9375,-25.4 13.22916,1.5875 4.23334,23.8125 5.82083,6.35 z"
       style="display:inline;fill:#a26b0f;fill-opacity:1;stroke:none;stroke-width:0.264583px;stroke-linecap:butt;stroke-linejoin:miter;stroke-opacity:1" />
    <path
       sodipodi:nodetypes="cccccccc"
       id="path884"
       d="m 307.23745,566.32992 -51.68315,3.56433 13.66335,-34.45541 -6.53463,-54.05935 29.10888,-65.94055 22.57425,61.78214 -11.28713,60.59401 z"
       style="display:inline;fill:#238400;fill-opacity:1;stroke:none;stroke-width:0.297029px;stroke-linecap:butt;stroke-linejoin:miter;stroke-opacity:1" />
    <path
       id="path3459-6"
       d="m 364.01193,589.50054 14.64905,-6.34092 7.07258,-36.99714 16.60343,-0.68665 3.28027,37.71601 7.72705,6.56257 z"
       style="display:inline;fill:#a26b0f;fill-opacity:1;stroke:none;stroke-width:0.286509px;stroke-linecap:butt;stroke-linejoin:miter;stroke-opacity:1" />
    <path
       sodipodi:nodetypes="ccccccccc"
       id="path3477-2"
       d="m 396.80108,550.29284 -30.06,8.1253 17.97862,-50.63892 -14.60825,-48.14422 26.07366,-76.78161 29.31977,71.0497 -17.88393,52.92902 12.91434,48.78779 z"
       style="display:inline;fill:#238400;fill-opacity:1;stroke:none;stroke-width:0.286509px;stroke-linecap:butt;stroke-linejoin:miter;stroke-opacity:1" />
    <path
       sodipodi:nodetypes="ccccccccccccccc"
       id="path904"
       d="m 691.47979,592.69663 14.21874,-11.97369 3.63704,-116.0067 -14.80246,0.39656 -0.21762,-2.64292 14.31023,-1.11112 0.4404,-17.95889 h 7.10938 l 2.25202,46.04176 11.05199,0.73853 -0.51009,3.00009 -10.63117,-0.36663 4.57243,88.28352 13.47038,11.59949 z"
       style="display:inline;fill:#a26b0f;fill-opacity:1;stroke:none;stroke-width:0.264583px;stroke-linecap:butt;stroke-linejoin:miter;stroke-opacity:1" />
    <path
       id="path906"
       d="m 710.18864,446.76746 -16.46381,3.74177 -12.34784,-14.59291 13.47039,-17.96053 24.69571,-12.34784 19.83139,17.96053 8.60608,20.57974 -23.94736,5.61266 z"
       style="display:inline;fill:#238400;fill-opacity:1;stroke:none;stroke-width:0.264583px;stroke-linecap:butt;stroke-linejoin:miter;stroke-opacity:1" />
    <path
       id="path908"
       d="m 782.0307,591.94828 10.477,-8.98027 5.2384,-22.45064 17.9606,-1.4967 3.7417,22.45064 11.2253,8.98025 z"
       style="display:inline;fill:#a26b0f;fill-opacity:1;stroke:none;stroke-width:0.264583px;stroke-linecap:butt;stroke-linejoin:miter;stroke-opacity:1" />
    <path
       id="path910"
       d="m 803.5274,564.72078 -23.4273,1.83165 11.8884,-35.0661 -7.3087,-29.88379 23.3209,-37.1313 18.8138,36.08411 -8.5377,30.83586 12.1624,34.7874 z"
       style="display:inline;fill:#238400;fill-opacity:1;stroke:none;stroke-width:0.264583px;stroke-linecap:butt;stroke-linejoin:miter;stroke-opacity:1" />
    <path
       id="path912"
       d="m 887.022,570.59371 10.3281,-4.04149 5.8377,-18.41108 12.5734,-1.79623 1.7962,18.86019 5.3887,4.49051 z"
       style="display:inline;fill:#8f5e0d;fill-opacity:1;stroke:none;stroke-width:0.317526px;stroke-linecap:butt;stroke-linejoin:miter;stroke-opacity:1" />
    <path
       sodipodi:nodetypes="ccccccccccccccccc"
       id="path914"
       d="m 904.0859,551.28447 -20.6564,1.34718 13.4716,-26.045 -10.3282,-13.92061 12.1244,-13.0225 -15.7168,-8.98104 15.7168,-22.45259 -14.8187,-5.83767 23.3506,-26.045 25.147,21.10545 -13.0225,10.32816 13.4715,18.86019 -16.6149,13.47155 17.064,17.06396 -13.4716,9.87915 10.7772,19.75826 z"
       style="display:inline;fill:#1d6f00;fill-opacity:1;stroke:none;stroke-width:0.317526px;stroke-linecap:butt;stroke-linejoin:miter;stroke-opacity:1" />
    <path
       sodipodi:nodetypes="ccccccc"
       id="path3413-8"
       d="m 962.6887,568.95477 20.0432,-7.34922 8.6854,-21.37947 h 16.7027 l 5.345,19.37517 13.3621,10.02162 z"
       style="display:inline;fill:#8f5e0d;fill-opacity:1;stroke:none;stroke-width:0.382855px;stroke-linecap:butt;stroke-linejoin:miter;stroke-opacity:1" />
    <path
       sodipodi:nodetypes="ccccccccccc"
       id="path3415-2"
       d="m 1001.3117,544.39385 -31.6875,3.18142 10.9125,-33.97808 -7.8582,-29.65132 24.6563,-43.74521 11.9306,-42.94983 11.1352,46.13126 13.5211,37.38229 -11.1351,36.58696 8.4627,32.1328 z"
       style="display:inline;fill:#1d6f00;fill-opacity:1;stroke:none;stroke-width:0.455782px;stroke-linecap:butt;stroke-linejoin:miter;stroke-opacity:1" />
    <path
       style="display:inline;fill:#a26b0f;fill-opacity:1;stroke:none;stroke-width:0.286509px;stroke-linecap:butt;stroke-linejoin:miter;stroke-opacity:1"
       d="m 900.9552,591.12363 14.649,-6.34093 7.0726,-36.99713 16.6034,-0.68665 3.2803,37.71601 7.7271,6.56257 z"
       id="path3459-6-9" />
    <path
       style="display:inline;fill:#238400;fill-opacity:1;stroke:none;stroke-width:0.286509px;stroke-linecap:butt;stroke-linejoin:miter;stroke-opacity:1"
       d="m 933.7443,551.91592 -30.06,8.1253 17.9786,-50.63892 -14.6082,-48.14422 26.0736,-76.7816 29.3198,71.0497 -17.8839,52.92905 12.9143,48.78776 z"
       id="path3477-2-8"
       sodipodi:nodetypes="ccccccccc" />
  </g>
</svg>
