<?xml version="1.0" encoding="UTF-8" standalone="no"?>
<svg
   xmlns:dc="http://purl.org/dc/elements/1.1/"
   xmlns:cc="http://creativecommons.org/ns#"
   xmlns:rdf="http://www.w3.org/1999/02/22-rdf-syntax-ns#"
   xmlns:svg="http://www.w3.org/2000/svg"
   xmlns="http://www.w3.org/2000/svg"
   xmlns:xlink="http://www.w3.org/1999/xlink"
   xmlns:sodipodi="http://sodipodi.sourceforge.net/DTD/sodipodi-0.dtd"
   xmlns:inkscape="http://www.inkscape.org/namespaces/inkscape"
   sodipodi:docname="Forest4.svg"
   inkscape:version="1.0 (4035a4fb49, 2020-05-01)"
   id="svg1001"
   version="1.1"
   viewBox="0 0 1000 1080"
   height="1080mm"
   width="1000mm">
  <defs
     id="defs995">
    <linearGradient
       inkscape:collect="always"
       id="linearGradient1033">
      <stop
         style="stop-color:#d5f6ff;stop-opacity:1"
         offset="0"
         id="stop1029" />
      <stop
         style="stop-color:#5599ff;stop-opacity:1"
         offset="1"
         id="stop1031" />
    </linearGradient>
    <linearGradient
       inkscape:collect="always"
       xlink:href="#linearGradient1033"
       id="linearGradient1989"
       gradientUnits="userSpaceOnUse"
       x1="484.27606"
       y1="751.53217"
       x2="476.23828"
       y2="64.302216" />
    <linearGradient
       y2="755.83771"
       x2="505.67395"
       y1="571.08923"
       x1="505.67395"
       gradientTransform="translate(1.11e-5,2.5e-4)"
       gradientUnits="userSpaceOnUse"
       id="linearGradient1835-9"
       xlink:href="#linearGradient1841"
       inkscape:collect="always" />
    <linearGradient
       inkscape:collect="always"
       id="linearGradient1841">
      <stop
         style="stop-color:#3e9646;stop-opacity:1"
         offset="0"
         id="stop1837" />
      <stop
         style="stop-color:#20ac0f;stop-opacity:1"
         offset="1"
         id="stop1839" />
    </linearGradient>
    <linearGradient
       inkscape:collect="always"
       xlink:href="#linearGradient1841"
       id="linearGradient1824"
       gradientUnits="userSpaceOnUse"
       gradientTransform="translate(-1097.1484,-1.12872)"
       x1="505.67395"
       y1="574.78296"
       x2="505.67395"
       y2="755.83771" />
    <linearGradient
       inkscape:collect="always"
       xlink:href="#linearGradient1069"
       id="linearGradient970"
       x1="517.87946"
       y1="783.61523"
       x2="517.87946"
       y2="1081.1722"
       gradientUnits="userSpaceOnUse"
       gradientTransform="translate(-1097.1484,-1.12872)" />
    <linearGradient
       id="linearGradient1069"
       inkscape:collect="always">
      <stop
         id="stop1065"
         offset="0"
         style="stop-color:#187f22;stop-opacity:1" />
      <stop
         id="stop1067"
         offset="1"
         style="stop-color:#12ab00;stop-opacity:1" />
    </linearGradient>
  </defs>
  <sodipodi:namedview
     inkscape:window-maximized="1"
     inkscape:window-y="-8"
     inkscape:window-x="-8"
     inkscape:window-height="1017"
     inkscape:window-width="1920"
     inkscape:snap-page="true"
     showgrid="false"
     inkscape:document-rotation="0"
     inkscape:current-layer="layer1"
     inkscape:document-units="mm"
     inkscape:cy="1866.4747"
     inkscape:cx="1931.4525"
     inkscape:zoom="0.175"
     inkscape:pageshadow="2"
     inkscape:pageopacity="0.0"
     borderopacity="1.0"
     bordercolor="#666666"
     pagecolor="#ffffff"
     id="base" />
  <metadata
     id="metadata998">
    <rdf:RDF>
      <cc:Work
         rdf:about="">
        <dc:format>image/svg+xml</dc:format>
        <dc:type
           rdf:resource="http://purl.org/dc/dcmitype/StillImage" />
        <dc:title></dc:title>
      </cc:Work>
    </rdf:RDF>
  </metadata>
  <g
     id="layer1"
     inkscape:groupmode="layer"
     inkscape:label="Layer 1">
    <path
       id="path1985-2"
       d="m -2.770295,465.40788 357.366805,18.46858 180.06859,6.46398 h 60.02282 L 726.7382,484.79988 837.54962,493.11073 997.3027,488.4936 983.4513,702.729 11.081102,579.91301 -6.463998,533.74158 Z"
       style="fill:#185800;fill-opacity:1;stroke:none;stroke-width:0.264583px;stroke-linecap:butt;stroke-linejoin:miter;stroke-opacity:1" />
    <path
       style="fill:#185800;fill-opacity:1;stroke:none;stroke-width:0.264583px;stroke-linecap:butt;stroke-linejoin:miter;stroke-opacity:1"
       d="m -2.770295,465.40788 357.366805,18.46858 180.06859,6.46398 h 60.02282 L 726.7382,484.79988 837.54962,493.11073 997.3027,488.4936 983.4513,702.729 11.081102,579.91301 -6.463998,533.74158 Z"
       id="path1999-5" />
    <path
       style="display:inline;fill:url(#linearGradient1835-9);fill-opacity:1;stroke:none;stroke-width:0.264999;stroke-linecap:butt;stroke-linejoin:miter;stroke-miterlimit:4;stroke-dasharray:none;stroke-opacity:1"
       d="M 3.1e-6,563.60677 C 168.5609,574.66892 343.20831,570.89453 499.24832,579.64208 667.26871,571.10292 829.35791,557.28749 1000,563.60677 V 1080 H 3.1e-6 Z"
       id="path1832-2"
       sodipodi:nodetypes="cccccc" />
    <path
       sodipodi:nodetypes="cccccc"
       id="path3373-2"
       d="M 3.1e-6,563.60677 C 168.5609,574.66892 343.20831,570.89453 499.24832,579.64208 667.26871,571.10292 829.35791,557.28749 1000,563.60677 V 1080 H 3.1e-6 Z"
       style="font-variation-settings:normal;display:inline;opacity:1;vector-effect:none;fill:url(#linearGradient1824);fill-opacity:1;stroke:none;stroke-width:0.264999;stroke-linecap:butt;stroke-linejoin:miter;stroke-miterlimit:4;stroke-dasharray:none;stroke-dashoffset:0;stroke-opacity:1;stop-color:#000000;stop-opacity:1" />
    <path
       sodipodi:nodetypes="ccccccc"
       id="path1900-6"
       d="m 241.0148,580.37474 14.77491,-5.54059 8.7725,-78.4914 h 12.92799 l 4.61719,78.0297 11.54282,5.54056 z"
       style="fill:#8f5e0d;fill-opacity:1;stroke:none;stroke-width:0.264583px;stroke-linecap:butt;stroke-linejoin:miter;stroke-opacity:1" />
    <path
       id="path1925-6"
       d="m 410.92561,582.68331 12.0046,-6.92571 5.07889,-71.10399 16.6217,-1.84688 4.61711,73.41257 7.84919,8.31085 z"
       style="fill:#8f5e0d;fill-opacity:1;stroke:none;stroke-width:0.264583px;stroke-linecap:butt;stroke-linejoin:miter;stroke-opacity:1" />
    <path
       sodipodi:nodetypes="ccccccc"
       style="fill:#8f5e0d;fill-opacity:1;stroke:none;stroke-width:0.360214px;stroke-linecap:butt;stroke-linejoin:miter;stroke-opacity:1"
       d="m 33.996805,585.05656 13.334598,-9.7787 6.2228,-62.22813 11.5567,-1.77792 -0.889,64.00605 15.1126,9.7787 z"
       id="path1858-3" />
    <path
       sodipodi:nodetypes="ccccccccccccccc"
       id="path1875-7"
       d="m 48.294003,516.08421 -18.580598,7.55484 -16.350901,-20.98559 10.405099,-26.02217 -5.202499,-25.18272 30.472099,-13.43075 13.378,18.46733 23.0399,-10.91253 13.378,22.66442 13.377997,7.55484 -5.2026,32.73753 -17.837297,-5.03653 -10.4051,21.82503 -14.1212,-11.75195 z"
       style="fill:#1d6f00;fill-opacity:1;stroke:none;stroke-width:0.320053px;stroke-linecap:butt;stroke-linejoin:miter;stroke-opacity:1" />
    <path
       sodipodi:nodetypes="ccccccc"
       id="path1877-6"
       d="m 124.2011,588.22387 21.6551,-9.69598 4.2709,-88.18745 14.488,0.46173 1.5251,90.95769 8.3878,6.46401 z"
       style="fill:#8f5e0d;fill-opacity:1;stroke:none;stroke-width:0.24043px;stroke-linecap:butt;stroke-linejoin:miter;stroke-opacity:1" />
    <path
       sodipodi:nodetypes="ccccccccccc"
       id="path1879-7"
       d="m 155.136,496.80445 -30.9349,5.07886 -4.1554,-23.08571 -10.1577,-24.47087 24.0091,-27.70282 37.8606,-8.31088 38.3223,33.70513 -0.4617,34.62859 -19.392,19.39198 -18.4686,8.31088 z"
       style="fill:#1d6f00;fill-opacity:1;stroke:none;stroke-width:0.264583px;stroke-linecap:butt;stroke-linejoin:miter;stroke-opacity:1" />
    <path
       style="fill:#1d6f00;fill-opacity:1;stroke:none;stroke-width:0.264583px;stroke-linecap:butt;stroke-linejoin:miter;stroke-opacity:1"
       d="m 288.3405,506.50045 -22.16229,-8.31085 -14.31311,8.31085 -22.624,-20.77712 11.5429,-15.69829 -8.7726,-15.69828 24.00911,-15.69828 36.01371,-0.46173 6.46398,18.93028 17.08351,3.23201 -10.1578,24.47084 5.54058,20.77715 z"
       id="path1902-6" />
    <path
       id="path1923-9"
       d="m 318.5828,590.99416 13.38972,-3.69372 9.23427,-89.57257 18.46861,-0.4617 4.61711,90.9577 6.9257,4.15544 z"
       style="fill:#8f5e0d;fill-opacity:1;stroke:none;stroke-width:0.264583px;stroke-linecap:butt;stroke-linejoin:miter;stroke-opacity:1" />
    <path
       id="path1927-2"
       d="m 481.56791,595.1496 12.00459,-8.77261 10.1577,-91.41938 13.38972,-1.84688 5.07888,91.88112 9.23431,6.9257 z"
       style="fill:#8f5e0d;fill-opacity:1;stroke:none;stroke-width:0.264583px;stroke-linecap:butt;stroke-linejoin:miter;stroke-opacity:1" />
    <path
       id="path1931-5"
       d="m 432.16451,512.96446 -18.9303,4.15541 -26.31771,-18.46855 15.23661,-23.54744 -6.46401,-39.70742 34.16681,-7.38743 15.23659,16.16001 24.47092,0.46169 11.54279,36.01374 -22.1623,12.46626 1.8469,24.93257 z"
       style="fill:#1d6f00;fill-opacity:1;stroke:none;stroke-width:0.264583px;stroke-linecap:butt;stroke-linejoin:miter;stroke-opacity:1" />
    <path
       id="path1929-3"
       d="m 349.9794,506.96217 -24.0092,8.31086 -29.088,-13.85144 9.696,-34.62856 22.1623,-21.70057 8.3109,-26.77943 37.8605,8.31085 12.4663,37.39885 21.70059,22.1623 -17.08338,24.00914 -28.1646,-4.61714 z"
       style="fill:#1e7300;fill-opacity:1;stroke:none;stroke-width:0.264583px;stroke-linecap:butt;stroke-linejoin:miter;stroke-opacity:1" />
    <path
       id="path1943-0"
       d="m 563.2914,589.60901 11.54282,-6.9257 11.5429,-89.11085 15.69828,-2.30857 3.23191,90.95769 8.31091,6.46401 z"
       style="fill:#8f5e0d;fill-opacity:1;stroke:none;stroke-width:0.264583px;stroke-linecap:butt;stroke-linejoin:miter;stroke-opacity:1" />
    <path
       id="path1933-7"
       d="m 511.57941,506.03873 -27.24121,8.31088 -18.9303,-15.23659 14.31321,-30.01142 1.8468,-46.63313 30.0115,0.92342 16.1599,23.08571 26.31779,14.31314 -1.3852,20.77715 -24.47079,11.54284 -1.38519,16.62171 z"
       style="fill:#1e7300;fill-opacity:1;stroke:none;stroke-width:0.264583px;stroke-linecap:butt;stroke-linejoin:miter;stroke-opacity:1" />
    <path
       sodipodi:nodetypes="ccccccccccc"
       id="path1949-0"
       d="m 594.68792,502.80673 -23.08572,8.31086 -24.93259,-16.15998 12.0046,-22.62402 -6.46401,-27.24113 12.46629,-29.5497 32.78172,-5.54059 11.5429,26.31771 25.3942,17.08343 -6.00231,34.62859 z"
       style="fill:#1e7300;fill-opacity:1;stroke:none;stroke-width:0.264583px;stroke-linecap:butt;stroke-linejoin:miter;stroke-opacity:1" />
    <path
       id="path1945-0"
       d="m 648.7085,583.145 16.16001,-6.00228 v -86.80225 l 25.39429,-0.46173 5.54051,84.03199 11.0812,6.46401 z"
       style="fill:#8f5e0d;fill-opacity:1;stroke:none;stroke-width:0.264583px;stroke-linecap:butt;stroke-linejoin:miter;stroke-opacity:1" />
    <path
       sodipodi:nodetypes="ccccccc"
       id="path1947-2"
       d="m 775.21821,580.83643 12.46629,-6.92568 3.23202,-79.41487 16.62168,0.46173 7.8491,78.0297 10.61942,6.464 z"
       style="fill:#8f5e0d;fill-opacity:1;stroke:none;stroke-width:0.264583px;stroke-linecap:butt;stroke-linejoin:miter;stroke-opacity:1" />
    <path
       id="path1951-3"
       d="m 696.2695,500.277 -53.7355,13.34056 -11.30969,-26.42339 16.66229,-33.78464 -9.7432,-40.61939 37.3553,-19.3798 29.7319,29.34081 29.28072,12.41176 -8.5122,39.44175 16.93569,11.83852 z"
       style="fill:#1e7300;fill-opacity:1;stroke:none;stroke-width:0.333846px;stroke-linecap:butt;stroke-linejoin:miter;stroke-opacity:1" />
    <path
       sodipodi:nodetypes="ccccccccccc"
       id="path1953-7"
       d="m 795.5336,503.73016 -45.70968,-3.23199 12.46629,-25.85599 -16.16001,-36.01373 29.5497,-37.39883 17.08341,24.47084 36.4754,-3.69372 10.1577,21.23887 15.69831,19.8537 -20.77712,31.85827 z"
       style="fill:#1e7300;fill-opacity:1;stroke:none;stroke-width:0.264583px;stroke-linecap:butt;stroke-linejoin:miter;stroke-opacity:1" />
    <path
       id="path1955-8"
       d="m 871.54641,578.59258 13.3346,-9.77873 6.2229,-62.2281 11.5566,-1.77795 -0.889,64.00605 15.1126,9.77871 z"
       style="fill:#8f5e0d;fill-opacity:1;stroke:none;stroke-width:0.360214px;stroke-linecap:butt;stroke-linejoin:miter;stroke-opacity:1"
       sodipodi:nodetypes="ccccccc" />
    <path
       style="fill:#1d6f00;fill-opacity:1;stroke:none;stroke-width:0.320053px;stroke-linecap:butt;stroke-linejoin:miter;stroke-opacity:1"
       d="m 885.84362,509.62023 -18.5806,7.55481 -16.35091,-20.98559 10.40519,-26.02214 -5.20258,-25.18272 30.47209,-13.43078 13.37799,18.46733 23.03992,-10.91253 13.37799,22.66445 13.37799,7.55481 -5.20249,32.73756 -17.83739,-5.03653 -10.40511,21.825 -14.12121,-11.75192 z"
       id="path1957-2"
       sodipodi:nodetypes="ccccccccccccccc" />
    <path
       style="fill:#8f5e0d;fill-opacity:1;stroke:none;stroke-width:0.264583px;stroke-linecap:butt;stroke-linejoin:miter;stroke-opacity:1"
       d="m 966.8296,573.91073 14.7748,-5.54059 8.7726,-78.4914 h 12.928 l 4.6171,78.0297 11.5429,5.54056 z"
       id="path1959-0"
       sodipodi:nodetypes="ccccccc" />
    <path
       id="path1961-0"
       d="m 1014.1553,500.03647 -22.1623,-8.31088 -14.3131,8.31088 -22.624,-20.77712 11.5428,-15.69831 -8.7725,-15.69826 24.0091,-15.69831 36.0137,-0.46173 6.464,18.93028 17.0834,3.23202 -10.1577,24.47083 5.5406,20.77715 z"
       style="fill:#1d6f00;fill-opacity:1;stroke:none;stroke-width:0.264583px;stroke-linecap:butt;stroke-linejoin:miter;stroke-opacity:1" />
    <path
       style="fill:#8f5e0d;fill-opacity:1;stroke:none;stroke-width:0.264583px;stroke-linecap:butt;stroke-linejoin:miter;stroke-opacity:1"
       d="m -35.090297,571.14043 11.542899,-6.9257 11.5428,-89.11085 15.6983011,-2.30857 3.232002,90.95769 8.3108979,6.46401 z"
       id="path1963-9" />
    <path
       style="fill:#1e7300;fill-opacity:1;stroke:none;stroke-width:0.264583px;stroke-linecap:butt;stroke-linejoin:miter;stroke-opacity:1"
       d="m -3.693697,484.33816 -23.0857,8.31085 -24.9326,-16.15998 12.0046,-22.62402 -6.464,-27.24113 12.4663,-29.5497 32.7816011,-5.54059 11.5429009,26.31771 25.394298,17.08343 -6.002298,34.62859 z"
       id="path1965-5"
       sodipodi:nodetypes="ccccccccccc" />
    <path
       sodipodi:nodetypes="cssacccc"
       id="path117-3"
       d="m 3.1e-6,751.15275 c 0,0 126.2325969,-0.64868 218.9870969,3.76822 92.7545,4.41685 190.16289,-7.98044 283.46842,-2.08825 42.19159,2.66438 150.5835,-7.51927 225.94358,-7.97552 C 818.95542,744.30893 1000,751.15275 1000,751.15275 V 1080 H 3.1e-6 Z"
       style="font-variation-settings:normal;display:inline;opacity:1;vector-effect:none;fill:url(#linearGradient970);fill-opacity:1;stroke:none;stroke-width:0.264999;stroke-linecap:butt;stroke-linejoin:miter;stroke-miterlimit:4;stroke-dasharray:none;stroke-dashoffset:0;stroke-opacity:1;stop-color:#000000;stop-opacity:1" />
  </g>
</svg>
