<?xml version="1.0" encoding="UTF-8" standalone="no"?>
<svg
   xmlns:dc="http://purl.org/dc/elements/1.1/"
   xmlns:cc="http://creativecommons.org/ns#"
   xmlns:rdf="http://www.w3.org/1999/02/22-rdf-syntax-ns#"
   xmlns:svg="http://www.w3.org/2000/svg"
   xmlns="http://www.w3.org/2000/svg"
   xmlns:xlink="http://www.w3.org/1999/xlink"
   xmlns:sodipodi="http://sodipodi.sourceforge.net/DTD/sodipodi-0.dtd"
   xmlns:inkscape="http://www.inkscape.org/namespaces/inkscape"
   sodipodi:docname="Forest2.svg"
   inkscape:version="1.0 (4035a4fb49, 2020-05-01)"
   id="svg1001"
   version="1.1"
   viewBox="0 0 1000 1080"
   height="1080mm"
   width="1000mm">
  <defs
     id="defs995">
    <linearGradient
       inkscape:collect="always"
       xlink:href="#linearGradient1841"
       id="linearGradient2539"
       gradientUnits="userSpaceOnUse"
       gradientTransform="translate(-1.2e-4,9.5e-5)"
       x1="505.67395"
       y1="571.08923"
       x2="505.67395"
       y2="755.83771" />
    <linearGradient
       inkscape:collect="always"
       id="linearGradient1841">
      <stop
         style="stop-color:#3e9646;stop-opacity:1"
         offset="0"
         id="stop1837" />
      <stop
         style="stop-color:#20ac0f;stop-opacity:1"
         offset="1"
         id="stop1839" />
    </linearGradient>
    <linearGradient
       inkscape:collect="always"
       xlink:href="#linearGradient1841"
       id="linearGradient1824"
       gradientUnits="userSpaceOnUse"
       gradientTransform="translate(1048.5556,9.5e-5)"
       x1="505.67395"
       y1="574.78296"
       x2="505.67395"
       y2="755.83771" />
    <linearGradient
       inkscape:collect="always"
       xlink:href="#linearGradient1069"
       id="linearGradient970"
       x1="517.87946"
       y1="783.61523"
       x2="517.87946"
       y2="1081.1722"
       gradientUnits="userSpaceOnUse"
       gradientTransform="translate(1048.5556,9.5e-5)" />
    <linearGradient
       id="linearGradient1069"
       inkscape:collect="always">
      <stop
         id="stop1065"
         offset="0"
         style="stop-color:#187f22;stop-opacity:1" />
      <stop
         id="stop1067"
         offset="1"
         style="stop-color:#12ab00;stop-opacity:1" />
    </linearGradient>
  </defs>
  <sodipodi:namedview
     inkscape:window-maximized="1"
     inkscape:window-y="-8"
     inkscape:window-x="-8"
     inkscape:window-height="1017"
     inkscape:window-width="1920"
     inkscape:snap-page="true"
     showgrid="false"
     inkscape:document-rotation="0"
     inkscape:current-layer="layer1"
     inkscape:document-units="mm"
     inkscape:cy="1866.4747"
     inkscape:cx="1931.4525"
     inkscape:zoom="0.175"
     inkscape:pageshadow="2"
     inkscape:pageopacity="0.0"
     borderopacity="1.0"
     bordercolor="#666666"
     pagecolor="#ffffff"
     id="base" />
  <metadata
     id="metadata998">
    <rdf:RDF>
      <cc:Work
         rdf:about="">
        <dc:format>image/svg+xml</dc:format>
        <dc:type
           rdf:resource="http://purl.org/dc/dcmitype/StillImage" />
        <dc:title></dc:title>
      </cc:Work>
    </rdf:RDF>
  </metadata>
  <g
     id="layer1"
     inkscape:groupmode="layer"
     inkscape:label="Layer 1">
    <path
       id="path2439"
       d="m -2.7704,465.40772 357.36686,18.46858 180.06856,6.46398 h 60.02285 l 132.05026,-5.54056 110.81142,8.31085 159.75305,-4.61713 -13.8514,214.2354 L 11.0811,579.91285 -6.46411,533.74142 Z"
       style="fill:#185800;fill-opacity:1;stroke:none;stroke-width:0.264583px;stroke-linecap:butt;stroke-linejoin:miter;stroke-opacity:1" />
    <path
       style="fill:#185800;fill-opacity:1;stroke:none;stroke-width:0.264583px;stroke-linecap:butt;stroke-linejoin:miter;stroke-opacity:1"
       d="m -2.7704,465.40772 357.36686,18.46858 180.06856,6.46398 h 60.02285 l 132.05026,-5.54056 110.81142,8.31085 159.75305,-4.61713 -13.8514,214.2354 L 11.0811,579.91285 -6.46411,533.74142 Z"
       id="path2443" />
    <path
       style="display:inline;fill:url(#linearGradient2539);fill-opacity:1;stroke:none;stroke-width:0.264999;stroke-linecap:butt;stroke-linejoin:miter;stroke-miterlimit:4;stroke-dasharray:none;stroke-opacity:1"
       d="m -1e-4,563.60661 c 168.56092,11.06215 343.20839,7.28776 499.24837,16.03531 C 667.26869,571.10276 829.35783,557.28733 1000,563.60661 V 1080 H -10e-5 Z"
       id="path2445"
       sodipodi:nodetypes="cccccc" />
    <path
       sodipodi:nodetypes="cccccc"
       id="path2447"
       d="m -1e-4,563.60661 c 168.56092,11.06215 343.20839,7.28776 499.24837,16.03531 C 667.26869,571.10276 829.35783,557.28733 1000,563.60661 V 1080 H -10e-5 Z"
       style="font-variation-settings:normal;display:inline;opacity:1;vector-effect:none;fill:url(#linearGradient1824);fill-opacity:1;stroke:none;stroke-width:0.264999;stroke-linecap:butt;stroke-linejoin:miter;stroke-miterlimit:4;stroke-dasharray:none;stroke-dashoffset:0;stroke-opacity:1;stop-color:#000000;stop-opacity:1" />
    <path
       sodipodi:nodetypes="ccccccc"
       id="path2465"
       d="m 124.20102,588.22371 21.6551,-9.69598 4.2709,-88.18745 14.488,0.46173 1.5251,90.95769 8.3878,6.46401 z"
       style="fill:#8f5e0d;fill-opacity:1;stroke:none;stroke-width:0.24043px;stroke-linecap:butt;stroke-linejoin:miter;stroke-opacity:1" />
    <path
       sodipodi:nodetypes="ccccccccccc"
       id="path2467"
       d="m 155.13592,496.80429 -30.9349,5.07886 -4.1554,-23.08571 -10.1577,-24.47087 24.0092,-27.70282 37.8605,-8.31088 38.3223,33.70513 -0.4617,34.62859 -19.392,19.39198 -18.4686,8.31088 z"
       style="fill:#1d6f00;fill-opacity:1;stroke:none;stroke-width:0.264583px;stroke-linecap:butt;stroke-linejoin:miter;stroke-opacity:1" />
    <path
       style="fill:#a26b0f;fill-opacity:1;stroke:none;stroke-width:0.328448px;stroke-linecap:butt;stroke-linejoin:miter;stroke-opacity:1"
       d="m 172.67642,611.08061 16.0485,-6.87795 3.439,-109.47403 18.3412,0.57317 5.1585,109.47403 12.0364,6.30478 z"
       id="path2469" />
    <path
       sodipodi:nodetypes="ccccccccccccc"
       id="path2473"
       d="m 198.72492,500.05385 -24.1759,10.28763 -27.2622,-14.40267 12.8595,-39.09298 -7.7157,-31.37725 30.8628,-22.1184 17.489,17.48895 44.2368,-21.60402 13.8883,29.83413 23.66152,26.74784 -22.11839,32.92038 -27.77662,20.57525 z"
       style="fill:#238400;fill-opacity:1;stroke:none;stroke-width:0.294764px;stroke-linecap:butt;stroke-linejoin:miter;stroke-opacity:1" />
    <path
       id="path2475"
       d="m 46.6331,610.8477 15.236516,-8.31086 7.8492,-120.04569 14.7748,1.38515 -0.4617,117.73712 11.0812,9.23428 z"
       style="fill:#a26b0f;fill-opacity:1;stroke:none;stroke-width:0.264583px;stroke-linecap:butt;stroke-linejoin:miter;stroke-opacity:1" />
    <path
       id="path2477"
       d="M 70.003616,493.50298 49.64912,504.96743 23.7376,492.58244 26.954,455.74797 38.3738,424.85016 23.0781,394.4207 l 51.120416,-22.59274 28.821604,24.98963 28.8357,-6.52211 1.7991,31.16082 15.9243,16.66955 -29.8297,35.40185 15.237,10.68893 -31.2483,15.92451 -19.331304,-7.54499 z"
       style="fill:#238400;fill-opacity:1;stroke:none;stroke-width:0.264583px;stroke-linecap:butt;stroke-linejoin:miter;stroke-opacity:1" />
    <path
       id="path2479"
       d="m 318.58275,590.994 13.38972,-3.69372 9.23427,-89.57257 18.46858,-0.4617 4.61714,90.9577 6.92571,4.15544 z"
       style="fill:#8f5e0d;fill-opacity:1;stroke:none;stroke-width:0.264583px;stroke-linecap:butt;stroke-linejoin:miter;stroke-opacity:1" />
    <path
       id="path2481"
       d="m 481.56788,595.14944 12.00457,-8.77261 10.1577,-91.41938 13.38972,-1.84688 5.07886,91.88112 9.23428,6.9257 z"
       style="fill:#8f5e0d;fill-opacity:1;stroke:none;stroke-width:0.264583px;stroke-linecap:butt;stroke-linejoin:miter;stroke-opacity:1" />
    <path
       id="path2485"
       d="m 349.97932,506.96201 -24.00914,8.31086 -29.088,-13.85144 9.696,-34.62856 22.1623,-21.70057 8.31085,-26.77943 37.86055,8.31085 12.4663,37.39885 21.70057,22.1623 -17.08344,24.00914 -28.16455,-4.61714 z"
       style="fill:#1e7300;fill-opacity:1;stroke:none;stroke-width:0.264583px;stroke-linecap:butt;stroke-linejoin:miter;stroke-opacity:1" />
    <path
       id="path2489"
       d="m 511.57931,506.03857 -27.24116,8.31088 -18.93027,-15.23659 14.31313,-30.01142 1.84687,-46.63313 30.01143,0.92342 16.15998,23.08571 26.31773,14.31314 -1.38514,20.77715 -24.47087,11.54284 -1.38514,16.62171 z"
       style="fill:#1e7300;fill-opacity:1;stroke:none;stroke-width:0.264583px;stroke-linecap:butt;stroke-linejoin:miter;stroke-opacity:1" />
    <path
       id="path2493"
       d="m 453.86503,605.30714 11.08115,-6.00229 9.696,-102.50056 16.62171,-2.30857 7.84912,98.80685 9.696,11.08114 z"
       style="fill:#a26b0f;fill-opacity:1;stroke:none;stroke-width:0.264583px;stroke-linecap:butt;stroke-linejoin:miter;stroke-opacity:1" />
    <path
       id="path2499"
       d="m 479.25932,505.11514 -34.62859,8.31086 -41.55427,-15.69829 26.77943,-33.70514 62.33142,-27.70285 39.70742,32.78172 23.54741,22.16229 -46.63313,19.8537 z"
       style="fill:#238400;fill-opacity:1;stroke:none;stroke-width:0.264583px;stroke-linecap:butt;stroke-linejoin:miter;stroke-opacity:1" />
    <path
       id="path2501"
       d="m 648.7084,583.14484 16.16004,-6.00228 v -86.80225 l 25.39426,-0.46173 5.54056,84.03199 11.08115,6.46401 z"
       style="fill:#8f5e0d;fill-opacity:1;stroke:none;stroke-width:0.264583px;stroke-linecap:butt;stroke-linejoin:miter;stroke-opacity:1" />
    <path
       sodipodi:nodetypes="ccccccc"
       id="path2503"
       d="m 775.21813,580.83627 12.46627,-6.92568 3.23202,-79.41487 16.6217,0.46173 7.84913,78.0297 10.61943,6.464 z"
       style="fill:#8f5e0d;fill-opacity:1;stroke:none;stroke-width:0.264583px;stroke-linecap:butt;stroke-linejoin:miter;stroke-opacity:1" />
    <path
       id="path2505"
       d="m 696.2694,500.27684 -53.73552,13.34056 -11.30967,-26.42339 16.66235,-33.78464 -9.74321,-40.61939 37.35533,-19.3798 29.73187,29.34081 29.28075,12.41176 -8.51228,39.44175 16.93566,11.83852 z"
       style="fill:#1e7300;fill-opacity:1;stroke:none;stroke-width:0.333846px;stroke-linecap:butt;stroke-linejoin:miter;stroke-opacity:1" />
    <path
       sodipodi:nodetypes="ccccccccccc"
       id="path2507"
       d="m 795.53355,503.73 -45.7097,-3.23199 12.46626,-25.85599 -16.15998,-36.01373 29.5497,-37.39883 17.08343,24.47084 36.47543,-3.69372 10.1577,21.23887 15.69829,19.8537 -20.77715,31.85827 z"
       style="fill:#1e7300;fill-opacity:1;stroke:none;stroke-width:0.264583px;stroke-linecap:butt;stroke-linejoin:miter;stroke-opacity:1" />
    <path
       id="path2509"
       d="m 871.54639,578.59242 13.3346,-9.77873 6.22282,-62.2281 11.55665,-1.77795 -0.88897,64.00605 15.11255,9.77871 z"
       style="fill:#8f5e0d;fill-opacity:1;stroke:none;stroke-width:0.360214px;stroke-linecap:butt;stroke-linejoin:miter;stroke-opacity:1"
       sodipodi:nodetypes="ccccccc" />
    <path
       style="fill:#1d6f00;fill-opacity:1;stroke:none;stroke-width:0.320053px;stroke-linecap:butt;stroke-linejoin:miter;stroke-opacity:1"
       d="m 885.84352,509.62007 -18.58055,7.55481 -16.35088,-20.98559 10.40511,-26.02214 -5.20256,-25.18272 30.47212,-13.43078 13.37799,18.46733 23.03992,-10.91253 13.378,22.66445 13.37793,7.55481 -5.20249,32.73756 -17.83734,-5.03653 -10.40511,21.825 -14.12124,-11.75192 z"
       id="path2511"
       sodipodi:nodetypes="ccccccccccccccc" />
    <path
       style="fill:#8f5e0d;fill-opacity:1;stroke:none;stroke-width:0.264583px;stroke-linecap:butt;stroke-linejoin:miter;stroke-opacity:1"
       d="m 966.8295,573.91057 14.7749,-5.54059 8.7726,-78.4914 h 12.9279 l 4.6172,78.0297 11.5429,5.54056 z"
       id="path2513"
       sodipodi:nodetypes="ccccccc" />
    <path
       id="path2515"
       d="m 1014.1552,500.03631 -22.1623,-8.31088 -14.3131,8.31088 -22.624,-20.77712 11.5429,-15.69831 -8.7726,-15.69826 24.0091,-15.69831 36.0138,-0.46173 6.4639,18.93028 17.0834,3.23202 -10.1577,24.47083 5.5406,20.77715 z"
       style="fill:#1d6f00;fill-opacity:1;stroke:none;stroke-width:0.264583px;stroke-linecap:butt;stroke-linejoin:miter;stroke-opacity:1" />
    <path
       style="fill:#8f5e0d;fill-opacity:1;stroke:none;stroke-width:0.264583px;stroke-linecap:butt;stroke-linejoin:miter;stroke-opacity:1"
       d="m -35.0904,571.14027 11.54289,-6.9257 11.5428,-89.11085 15.69831,-2.30857 3.232,90.95769 8.3109,6.46401 z"
       id="path2517" />
    <path
       style="fill:#1e7300;fill-opacity:1;stroke:none;stroke-width:0.264583px;stroke-linecap:butt;stroke-linejoin:miter;stroke-opacity:1"
       d="m -3.6938,484.338 -23.0857,8.31085 -24.9326,-16.15998 12.0046,-22.62402 -6.464,-27.24113 12.4663,-29.5497 32.7817,-5.54059 11.5428,26.31771 25.3943,17.08343 -6.0023,34.62859 z"
       id="path2519"
       sodipodi:nodetypes="ccccccccccc" />
    <path
       sodipodi:nodetypes="ccccccc"
       id="path2521"
       d="m 623.57913,608.56085 13.71221,-7.18259 10.44742,-81.62031 h 20.24182 l 2.61186,76.39661 15.01814,12.40629 z"
       style="fill:#a26b0f;fill-opacity:1;stroke:none;stroke-width:0.264583px;stroke-linecap:butt;stroke-linejoin:miter;stroke-opacity:1" />
    <path
       id="path2523"
       d="m 656.22725,526.94054 -22.85367,7.18259 -32.64813,-14.36518 15.67111,-30.03629 13.71219,-34.607 57.4607,6.52963 26.1185,37.21886 -22.20071,30.68923 z"
       style="fill:#238400;fill-opacity:1;stroke:none;stroke-width:0.264583px;stroke-linecap:butt;stroke-linejoin:miter;stroke-opacity:1" />
    <path
       id="path2525"
       d="m 782.24904,603.33716 18.28294,-9.79446 11.75332,-98.59732 h 18.93592 l 6.52962,100.55622 11.75332,13.05925 z"
       style="fill:#a26b0f;fill-opacity:1;stroke:none;stroke-width:0.264583px;stroke-linecap:butt;stroke-linejoin:miter;stroke-opacity:1" />
    <path
       id="path2527"
       d="m 818.81493,508.6576 -35.91293,9.14146 -33.30109,-26.77147 16.97704,-31.99516 43.09552,-33.95404 31.99516,18.28295 35.91293,0.65297 15.01815,39.17775 -30.03627,20.24184 z"
       style="fill:#238400;fill-opacity:1;stroke:none;stroke-width:0.264583px;stroke-linecap:butt;stroke-linejoin:miter;stroke-opacity:1" />
    <path
       style="fill:#a26b0f;fill-opacity:1;stroke:none;stroke-width:0.340183px;stroke-linecap:butt;stroke-linejoin:miter;stroke-opacity:1"
       d="m 926.39644,611.71677 18.87721,-7.16875 11.20835,-101.55708 h 16.5175 l 5.8991,100.9597 14.7479,7.1687 z"
       id="path2529"
       sodipodi:nodetypes="ccccccc" />
    <path
       id="path2531"
       d="m 946.15854,516.13361 28.31576,-10.75312 18.2873,10.75312 28.9057,-26.88275 -14.7477,-20.31143 11.2083,-20.3114 -30.6755,-20.31143 -46.01315,-0.59743 -8.25878,24.4932 -21.82678,4.18176 12.97808,31.66192 -7.07901,26.88278 z"
       style="fill:#238400;fill-opacity:1;stroke:none;stroke-width:0.340183px;stroke-linecap:butt;stroke-linejoin:miter;stroke-opacity:1" />
    <path
       sodipodi:nodetypes="cssacccc"
       id="path2533"
       d="m -1e-4,751.15259 c 0,0 126.23262,-0.64868 218.98712,3.76822 92.75456,4.41685 190.16292,-7.98044 283.46848,-2.08825 42.19157,2.66438 150.58347,-7.51927 225.94353,-7.97552 C 818.95532,744.30877 1000,751.15259 1000,751.15259 V 1080 H -10e-5 Z"
       style="font-variation-settings:normal;display:inline;opacity:1;vector-effect:none;fill:url(#linearGradient970);fill-opacity:1;stroke:none;stroke-width:0.264999;stroke-linecap:butt;stroke-linejoin:miter;stroke-miterlimit:4;stroke-dasharray:none;stroke-dashoffset:0;stroke-opacity:1;stop-color:#000000;stop-opacity:1" />
  </g>
</svg>
