<?xml version="1.0" encoding="UTF-8" standalone="no"?>
<svg
   xmlns:dc="http://purl.org/dc/elements/1.1/"
   xmlns:cc="http://creativecommons.org/ns#"
   xmlns:rdf="http://www.w3.org/1999/02/22-rdf-syntax-ns#"
   xmlns:svg="http://www.w3.org/2000/svg"
   xmlns="http://www.w3.org/2000/svg"
   xmlns:xlink="http://www.w3.org/1999/xlink"
   xmlns:sodipodi="http://sodipodi.sourceforge.net/DTD/sodipodi-0.dtd"
   xmlns:inkscape="http://www.inkscape.org/namespaces/inkscape"
   sodipodi:docname="Forest1.svg"
   inkscape:version="1.0 (4035a4fb49, 2020-05-01)"
   id="svg1001"
   version="1.1"
   viewBox="0 0 1000 1080"
   height="1080mm"
   width="1000mm">
  <defs
     id="defs995">
    <linearGradient
       inkscape:collect="always"
       xlink:href="#linearGradient1841"
       id="linearGradient2627"
       gradientUnits="userSpaceOnUse"
       gradientTransform="translate(-7.9999999e-6,9.5e-5)"
       x1="505.67395"
       y1="571.08923"
       x2="505.67395"
       y2="755.83771" />
    <linearGradient
       inkscape:collect="always"
       id="linearGradient1841">
      <stop
         style="stop-color:#3e9646;stop-opacity:1"
         offset="0"
         id="stop1837" />
      <stop
         style="stop-color:#20ac0f;stop-opacity:1"
         offset="1"
         id="stop1839" />
    </linearGradient>
    <linearGradient
       inkscape:collect="always"
       xlink:href="#linearGradient1841"
       id="linearGradient1824"
       gradientUnits="userSpaceOnUse"
       gradientTransform="translate(2115.5986,13.059345)"
       x1="505.67395"
       y1="574.78296"
       x2="505.67395"
       y2="755.83771" />
    <linearGradient
       inkscape:collect="always"
       xlink:href="#linearGradient1069"
       id="linearGradient970"
       x1="517.87946"
       y1="783.61523"
       x2="517.87946"
       y2="1081.1722"
       gradientUnits="userSpaceOnUse"
       gradientTransform="translate(2115.5986,13.059345)" />
    <linearGradient
       id="linearGradient1069"
       inkscape:collect="always">
      <stop
         id="stop1065"
         offset="0"
         style="stop-color:#187f22;stop-opacity:1" />
      <stop
         id="stop1067"
         offset="1"
         style="stop-color:#12ab00;stop-opacity:1" />
    </linearGradient>
  </defs>
  <sodipodi:namedview
     inkscape:window-maximized="0"
     inkscape:window-y="0"
     inkscape:window-x="104"
     inkscape:window-height="1040"
     inkscape:window-width="1274"
     inkscape:snap-page="true"
     showgrid="false"
     inkscape:document-rotation="0"
     inkscape:current-layer="layer1"
     inkscape:document-units="mm"
     inkscape:cy="2455.0462"
     inkscape:cx="3131.4525"
     inkscape:zoom="0.0875"
     inkscape:pageshadow="2"
     inkscape:pageopacity="0.0"
     borderopacity="1.0"
     bordercolor="#666666"
     pagecolor="#ffffff"
     id="base" />
  <metadata
     id="metadata998">
    <rdf:RDF>
      <cc:Work
         rdf:about="">
        <dc:format>image/svg+xml</dc:format>
        <dc:type
           rdf:resource="http://purl.org/dc/dcmitype/StillImage" />
        <dc:title></dc:title>
      </cc:Work>
    </rdf:RDF>
  </metadata>
  <g
     id="layer1"
     inkscape:groupmode="layer"
     inkscape:label="Layer 1">
    <path
       style="fill:#185800;fill-opacity:1;stroke:none;stroke-width:0.264583px;stroke-linecap:butt;stroke-linejoin:miter;stroke-opacity:1"
       d="m -2.7703,465.40773 357.36691,18.46858 180.06849,6.46398 h 60.0229 l 132.0502,-5.54056 110.81142,8.31085 159.75308,-4.61713 -13.8514,214.2354 L 11.0812,579.91286 -6.464,533.74143 Z"
       id="path2547" />
    <path
       id="path2551"
       d="m -2.7703,465.40773 357.36691,18.46858 180.06849,6.46398 h 60.0229 l 132.0502,-5.54056 110.81142,8.31085 159.75308,-4.61713 -13.8514,214.2354 L 11.0812,579.91286 -6.464,533.74143 Z"
       style="fill:#185800;fill-opacity:1;stroke:none;stroke-width:0.264583px;stroke-linecap:butt;stroke-linejoin:miter;stroke-opacity:1" />
    <path
       sodipodi:nodetypes="cccccc"
       id="path2553"
       d="m 0,563.60662 c 168.5609,11.06215 343.20842,7.28776 499.2484,16.03531 C 667.26881,571.10277 829.35791,557.28734 1000,563.60662 V 1080 H 0 Z"
       style="display:inline;fill:url(#linearGradient2627);fill-opacity:1;stroke:none;stroke-width:0.264999;stroke-linecap:butt;stroke-linejoin:miter;stroke-miterlimit:4;stroke-dasharray:none;stroke-opacity:1" />
    <path
       style="font-variation-settings:normal;display:inline;opacity:1;vector-effect:none;fill:url(#linearGradient1824);fill-opacity:1;stroke:none;stroke-width:0.264999;stroke-linecap:butt;stroke-linejoin:miter;stroke-miterlimit:4;stroke-dasharray:none;stroke-dashoffset:0;stroke-opacity:1;stop-color:#000000;stop-opacity:1"
       d="m 0,563.60662 c 168.5609,11.06215 343.20842,7.28776 499.2484,16.03531 C 667.26881,571.10277 829.35791,557.28734 1000,563.60662 V 1080 H 0 Z"
       id="path2555"
       sodipodi:nodetypes="cccccc" />
    <path
       style="fill:#8f5e0d;fill-opacity:1;stroke:none;stroke-width:0.24043px;stroke-linecap:butt;stroke-linejoin:miter;stroke-opacity:1"
       d="m 124.2011,588.22372 21.6551,-9.69598 4.2709,-88.18745 14.488,0.46173 1.5251,90.95769 8.3878,6.46401 z"
       id="path2565"
       sodipodi:nodetypes="ccccccc" />
    <path
       style="fill:#1d6f00;fill-opacity:1;stroke:none;stroke-width:0.264583px;stroke-linecap:butt;stroke-linejoin:miter;stroke-opacity:1"
       d="m 155.136,496.8043 -30.9349,5.07886 -4.1554,-23.08571 -10.1577,-24.47087 24.0092,-27.70282 37.8605,-8.31088 38.3223,33.70513 -0.4617,34.62859 -19.392,19.39198 -18.4686,8.31088 z"
       id="path2567"
       sodipodi:nodetypes="ccccccccccc" />
    <path
       style="fill:#a26b0f;fill-opacity:1;stroke:none;stroke-width:0.264583px;stroke-linecap:butt;stroke-linejoin:miter;stroke-opacity:1"
       d="m 46.633202,610.84771 15.236498,-8.31086 7.849202,-120.04569 14.7748,1.38515 -0.4617,117.73712 11.0812,9.23428 z"
       id="path2573" />
    <path
       style="fill:#238400;fill-opacity:1;stroke:none;stroke-width:0.264583px;stroke-linecap:butt;stroke-linejoin:miter;stroke-opacity:1"
       d="M 70.003702,493.50299 49.6492,504.96744 23.7377,492.58245 l 3.216402,-36.83447 11.4198,-30.89781 -15.2957,-30.42946 51.1204,-22.59274 28.821598,24.98963 28.8357,-6.52211 1.7991,31.16082 15.9243,16.66955 -29.8297,35.40185 15.237,10.68893 -31.2483,15.92451 -19.331298,-7.54499 z"
       id="path2575" />
    <path
       style="fill:#8f5e0d;fill-opacity:1;stroke:none;stroke-width:0.264583px;stroke-linecap:butt;stroke-linejoin:miter;stroke-opacity:1"
       d="m 318.5828,590.99401 13.38979,-3.69372 9.2342,-89.57257 18.46861,-0.4617 4.61721,90.9577 6.92568,4.15544 z"
       id="path2577" />
    <path
       style="fill:#8f5e0d;fill-opacity:1;stroke:none;stroke-width:0.264583px;stroke-linecap:butt;stroke-linejoin:miter;stroke-opacity:1"
       d="m 481.56801,595.14945 12.00449,-8.77261 10.1577,-91.41938 13.38979,-1.84688 5.07881,91.88112 9.23431,6.9257 z"
       id="path2579" />
    <path
       style="fill:#1e7300;fill-opacity:1;stroke:none;stroke-width:0.264583px;stroke-linecap:butt;stroke-linejoin:miter;stroke-opacity:1"
       d="m 349.9794,506.96202 -24.00909,8.31086 -29.088,-13.85144 9.696,-34.62856 22.16229,-21.70057 8.3108,-26.77943 37.86061,8.31085 12.46629,37.39885 21.70049,22.1623 -17.08338,24.00914 -28.16449,-4.61714 z"
       id="path2581" />
    <path
       style="fill:#1e7300;fill-opacity:1;stroke:none;stroke-width:0.264583px;stroke-linecap:butt;stroke-linejoin:miter;stroke-opacity:1"
       d="m 511.57941,506.03858 -27.24121,8.31088 -18.9302,-15.23659 14.31311,-30.01142 1.8469,-46.63313 30.0114,0.92342 16.16001,23.08571 26.31768,14.31314 -1.3851,20.77715 -24.47089,11.54284 -1.38512,16.62171 z"
       id="path2583" />
    <path
       style="fill:#8f5e0d;fill-opacity:1;stroke:none;stroke-width:0.264583px;stroke-linecap:butt;stroke-linejoin:miter;stroke-opacity:1"
       d="m 648.7085,583.14485 16.16001,-6.00228 v -86.80225 l 25.39429,-0.46173 5.54061,84.03199 11.0811,6.46401 z"
       id="path2589" />
    <path
       style="fill:#8f5e0d;fill-opacity:1;stroke:none;stroke-width:0.264583px;stroke-linecap:butt;stroke-linejoin:miter;stroke-opacity:1"
       d="m 775.21821,580.83628 12.46629,-6.92568 3.23202,-79.41487 16.62168,0.46173 7.84921,78.0297 10.61939,6.464 z"
       id="path2591"
       sodipodi:nodetypes="ccccccc" />
    <path
       style="fill:#1e7300;fill-opacity:1;stroke:none;stroke-width:0.333846px;stroke-linecap:butt;stroke-linejoin:miter;stroke-opacity:1"
       d="m 696.2695,500.27685 -53.7355,13.34056 -11.30969,-26.42339 16.6624,-33.78464 -9.7432,-40.61939 37.3553,-19.3798 29.73179,29.34081 29.2808,12.41176 -8.51228,39.44175 16.93569,11.83852 z"
       id="path2593" />
    <path
       style="fill:#1e7300;fill-opacity:1;stroke:none;stroke-width:0.264583px;stroke-linecap:butt;stroke-linejoin:miter;stroke-opacity:1"
       d="m 795.5336,503.73001 -45.70968,-3.23199 12.46629,-25.85599 -16.16001,-36.01373 29.5497,-37.39883 17.08351,24.47084 36.47541,-3.69372 10.1577,21.23887 15.69828,19.8537 -20.7772,31.85827 z"
       id="path2595"
       sodipodi:nodetypes="ccccccccccc" />
    <path
       sodipodi:nodetypes="ccccccc"
       style="fill:#8f5e0d;fill-opacity:1;stroke:none;stroke-width:0.360214px;stroke-linecap:butt;stroke-linejoin:miter;stroke-opacity:1"
       d="m 871.54651,578.59243 13.33461,-9.77873 6.22279,-62.2281 11.5567,-1.77795 -0.889,64.00605 15.1125,9.77871 z"
       id="path2597" />
    <path
       sodipodi:nodetypes="ccccccccccccccc"
       id="path2599"
       d="m 885.84362,509.62008 -18.5805,7.55481 -16.3509,-20.98559 10.40508,-26.02214 -5.20258,-25.18272 30.47219,-13.43078 13.378,18.46733 23.03989,-10.91253 13.37802,22.66445 13.37788,7.55481 -5.20249,32.73756 -17.83729,-5.03653 -10.40521,21.825 -14.12121,-11.75192 z"
       style="fill:#1d6f00;fill-opacity:1;stroke:none;stroke-width:0.320053px;stroke-linecap:butt;stroke-linejoin:miter;stroke-opacity:1" />
    <path
       sodipodi:nodetypes="ccccccc"
       id="path2601"
       d="m 966.8296,573.91058 14.7749,-5.54059 8.7726,-78.4914 h 12.9279 l 4.6171,78.0297 11.5429,5.54056 z"
       style="fill:#8f5e0d;fill-opacity:1;stroke:none;stroke-width:0.264583px;stroke-linecap:butt;stroke-linejoin:miter;stroke-opacity:1" />
    <path
       style="fill:#1d6f00;fill-opacity:1;stroke:none;stroke-width:0.264583px;stroke-linecap:butt;stroke-linejoin:miter;stroke-opacity:1"
       d="m 1014.1553,500.03632 -22.1623,-8.31088 -14.3131,8.31088 -22.624,-20.77712 11.5429,-15.69831 -8.7726,-15.69826 24.0091,-15.69831 36.0137,-0.46173 6.464,18.93028 17.0834,3.23202 -10.1577,24.47083 5.5406,20.77715 z"
       id="path2603" />
    <path
       id="path2605"
       d="m -35.0903,571.14028 11.5429,-6.9257 11.5428,-89.11085 15.6983,-2.30857 3.232002,90.95769 8.310898,6.46401 z"
       style="fill:#8f5e0d;fill-opacity:1;stroke:none;stroke-width:0.264583px;stroke-linecap:butt;stroke-linejoin:miter;stroke-opacity:1" />
    <path
       sodipodi:nodetypes="ccccccccccc"
       id="path2607"
       d="m -3.6937,484.33801 -23.0857,8.31085 -24.9326,-16.15998 12.0046,-22.62402 -6.464,-27.24113 12.4663,-29.5497 32.7817,-5.54059 11.542802,26.31771 25.394298,17.08343 -6.002298,34.62859 z"
       style="fill:#1e7300;fill-opacity:1;stroke:none;stroke-width:0.264583px;stroke-linecap:butt;stroke-linejoin:miter;stroke-opacity:1" />
    <path
       id="path2569"
       d="m 554.00662,600.63323 16.04848,-6.87795 3.439,-109.47405 18.34121,0.57316 5.1585,109.47406 12.0364,6.30478 z"
       style="fill:#a26b0f;fill-opacity:1;stroke:none;stroke-width:0.328448px;stroke-linecap:butt;stroke-linejoin:miter;stroke-opacity:1" />
    <path
       style="fill:#238400;fill-opacity:1;stroke:none;stroke-width:0.294764px;stroke-linecap:butt;stroke-linejoin:miter;stroke-opacity:1"
       d="m 580.05511,489.60647 -24.17591,10.28761 -27.26219,-14.40268 12.85949,-39.09298 -7.7157,-31.37723 30.8628,-22.11839 17.48901,17.48895 44.2368,-21.60402 13.8883,29.83413 23.6615,26.74781 -22.11829,32.92038 -27.7767,20.57527 z"
       id="path2571"
       sodipodi:nodetypes="ccccccccccccc" />
    <path
       style="font-variation-settings:normal;display:inline;opacity:1;vector-effect:none;fill:url(#linearGradient970);fill-opacity:1;stroke:none;stroke-width:0.264999;stroke-linecap:butt;stroke-linejoin:miter;stroke-miterlimit:4;stroke-dasharray:none;stroke-dashoffset:0;stroke-opacity:1;stop-color:#000000;stop-opacity:1"
       d="m 0,751.1526 c 0,0 126.2326,-0.64868 218.9871,3.76822 92.75461,4.41685 190.16289,-7.98044 283.4685,-2.08825 42.19162,2.66438 150.5835,-7.51927 225.9435,-7.97552 C 818.95542,744.30878 1000,751.1526 1000,751.1526 V 1080 H 0 Z"
       id="path2621"
       sodipodi:nodetypes="cssacccc" />
  </g>
</svg>
