<?xml version="1.0" encoding="UTF-8" standalone="no"?>
<svg
   xmlns:dc="http://purl.org/dc/elements/1.1/"
   xmlns:cc="http://creativecommons.org/ns#"
   xmlns:rdf="http://www.w3.org/1999/02/22-rdf-syntax-ns#"
   xmlns:svg="http://www.w3.org/2000/svg"
   xmlns="http://www.w3.org/2000/svg"
   xmlns:xlink="http://www.w3.org/1999/xlink"
   xmlns:sodipodi="http://sodipodi.sourceforge.net/DTD/sodipodi-0.dtd"
   xmlns:inkscape="http://www.inkscape.org/namespaces/inkscape"
   sodipodi:docname="ForestDesert1.svg"
   inkscape:version="1.0 (4035a4fb49, 2020-05-01)"
   id="svg1107"
   version="1.1"
   viewBox="0 0 1000 1080"
   height="1080mm"
   width="1000mm">
  <defs
     id="defs1101">
    <mask
       maskUnits="userSpaceOnUse"
       id="mask1673-0">
      <path
         style="font-variation-settings:normal;display:inline;opacity:1;vector-effect:none;fill:url(#linearGradient1671);fill-opacity:1;stroke:none;stroke-width:0.264999;stroke-linecap:butt;stroke-linejoin:miter;stroke-miterlimit:4;stroke-dasharray:none;stroke-dashoffset:0;stroke-opacity:1;stop-color:#000000;stop-opacity:1"
         d="m 1000.0001,563.60679 c 174.9799,-8.22253 326.4183,-19.89166 490.7799,-19.95514 169.0951,-0.0653 338.578,13.63589 509.2201,19.95514 v 516.39351 h -1000 z"
         id="path1675-3"
         sodipodi:nodetypes="cscccc" />
    </mask>
    <linearGradient
       y2="802.37537"
       x2="-2.2737368e-13"
       y1="802.37537"
       x1="-1000"
       gradientTransform="translate(2000.0001,2.8329996e-4)"
       gradientUnits="userSpaceOnUse"
       id="linearGradient1671"
       xlink:href="#linearGradient1218"
       inkscape:collect="always" />
    <linearGradient
       inkscape:collect="always"
       id="linearGradient1218">
      <stop
         style="stop-color:#000000;stop-opacity:1;"
         offset="0"
         id="stop1214" />
      <stop
         style="stop-color:#ffffff;stop-opacity:1"
         offset="1"
         id="stop1216" />
    </linearGradient>
    <mask
       maskUnits="userSpaceOnUse"
       id="mask1667-7">
      <path
         style="font-variation-settings:normal;display:inline;opacity:1;vector-effect:none;fill:url(#linearGradient1671);fill-opacity:1;stroke:none;stroke-width:0.264999;stroke-linecap:butt;stroke-linejoin:miter;stroke-miterlimit:4;stroke-dasharray:none;stroke-dashoffset:0;stroke-opacity:1;stop-color:#000000;stop-opacity:1"
         d="m 1000.0001,563.60679 c 174.9799,-8.22253 326.4183,-19.89166 490.7799,-19.95514 169.0951,-0.0653 338.578,13.63589 509.2201,19.95514 v 516.39351 h -1000 z"
         id="path1669-7"
         sodipodi:nodetypes="cscccc" />
    </mask>
    <mask
       id="mask1673"
       maskUnits="userSpaceOnUse">
      <path
         sodipodi:nodetypes="cscccc"
         id="path1675"
         d="m 1000.0001,563.60679 c 174.9799,-8.22253 326.4183,-19.89166 490.7799,-19.95514 169.0951,-0.0653 338.578,13.63589 509.2201,19.95514 v 516.39351 h -1000 z"
         style="font-variation-settings:normal;display:inline;opacity:1;vector-effect:none;fill:url(#linearGradient1671);fill-opacity:1;stroke:none;stroke-width:0.264999;stroke-linecap:butt;stroke-linejoin:miter;stroke-miterlimit:4;stroke-dasharray:none;stroke-dashoffset:0;stroke-opacity:1;stop-color:#000000;stop-opacity:1" />
    </mask>
    <mask
       id="mask1667"
       maskUnits="userSpaceOnUse">
      <path
         sodipodi:nodetypes="cscccc"
         id="path1669"
         d="m 1000.0001,563.60679 c 174.9799,-8.22253 326.4183,-19.89166 490.7799,-19.95514 169.0951,-0.0653 338.578,13.63589 509.2201,19.95514 v 516.39351 h -1000 z"
         style="font-variation-settings:normal;display:inline;opacity:1;vector-effect:none;fill:url(#linearGradient1671);fill-opacity:1;stroke:none;stroke-width:0.264999;stroke-linecap:butt;stroke-linejoin:miter;stroke-miterlimit:4;stroke-dasharray:none;stroke-dashoffset:0;stroke-opacity:1;stop-color:#000000;stop-opacity:1" />
    </mask>
    <mask
       id="mask2391"
       maskUnits="userSpaceOnUse">
      <path
         sodipodi:nodetypes="sccccsss"
         d="m 1284.5515,-173.88573 c -133.0276,0.2098 -273.5089,27.0666 -273.5089,27.0666 v 516.26131 h 1000.0001 v -516.26131 c 0,0 -136.409,-11.39431 -193.1791,-9.73601 -126.8374,3.7049 -223.5941,44.44091 -356.2981,9.73601 -47.234,-12.35269 -109.7178,-27.1727 -177.014,-27.0666 z"
         style="display:inline;fill:url(#linearGradient2395);fill-opacity:1;stroke:none;stroke-width:0.264583px;stroke-linecap:butt;stroke-linejoin:miter;stroke-opacity:1"
         id="path2393" />
    </mask>
    <linearGradient
       y2="3013.6379"
       x2="3779.5281"
       y1="3013.6379"
       x1="0"
       gradientTransform="matrix(0.26458333,0,0,0.26458333,1011.0426,-710.55786)"
       gradientUnits="userSpaceOnUse"
       id="linearGradient2395"
       xlink:href="#linearGradient1218"
       inkscape:collect="always" />
    <mask
       id="mask2385"
       maskUnits="userSpaceOnUse">
      <path
         sodipodi:nodetypes="sccccsss"
         d="m 1284.5515,-173.88573 c -133.0276,0.2098 -273.5089,27.0666 -273.5089,27.0666 v 516.26131 h 1000.0001 v -516.26131 c 0,0 -136.409,-11.39431 -193.1791,-9.73601 -126.8374,3.7049 -223.5941,44.44091 -356.2981,9.73601 -47.234,-12.35269 -109.7178,-27.1727 -177.014,-27.0666 z"
         style="display:inline;fill:url(#linearGradient2395);fill-opacity:1;stroke:none;stroke-width:0.264583px;stroke-linecap:butt;stroke-linejoin:miter;stroke-opacity:1"
         id="path2387" />
    </mask>
    <mask
       maskUnits="userSpaceOnUse"
       id="mask2857-6">
      <path
         id="path2859-5"
         style="font-variation-settings:normal;display:inline;opacity:1;vector-effect:none;fill:url(#linearGradient2855);fill-opacity:1;stroke:none;stroke-width:0.264999;stroke-linecap:butt;stroke-linejoin:miter;stroke-miterlimit:4;stroke-dasharray:none;stroke-dashoffset:0;stroke-opacity:1;stop-color:#000000;stop-opacity:1"
         d="M -4065.1732,-429.72622 V 86.53499 h 1000.0002 v -516.26121 c 0,0 -28.7433,6.36238 -85.5134,8.02058 -126.8375,3.7049 -235.8816,-42.42176 -398.7554,-45.90487 -177.4478,13.50719 -337.702,27.50193 -515.7314,37.88429 z"
         sodipodi:nodetypes="ccccscc" />
    </mask>
    <linearGradient
       y2="863.70721"
       x2="-73.293999"
       y1="863.70721"
       x1="926.70599"
       gradientTransform="translate(-3991.8791,-990.73237)"
       gradientUnits="userSpaceOnUse"
       id="linearGradient2855"
       xlink:href="#linearGradient1218"
       inkscape:collect="always" />
    <mask
       maskUnits="userSpaceOnUse"
       id="mask2851-6">
      <path
         id="path2853-8"
         style="font-variation-settings:normal;display:inline;opacity:1;vector-effect:none;fill:url(#linearGradient2855);fill-opacity:1;stroke:none;stroke-width:0.264999;stroke-linecap:butt;stroke-linejoin:miter;stroke-miterlimit:4;stroke-dasharray:none;stroke-dashoffset:0;stroke-opacity:1;stop-color:#000000;stop-opacity:1"
         d="M -4065.1732,-429.72622 V 86.53499 h 1000.0002 v -516.26121 c 0,0 -28.7433,6.36238 -85.5134,8.02058 -126.8375,3.7049 -235.8816,-42.42176 -398.7554,-45.90487 -177.4478,13.50719 -337.702,27.50193 -515.7314,37.88429 z"
         sodipodi:nodetypes="ccccscc" />
    </mask>
    <linearGradient
       inkscape:collect="always"
       xlink:href="#linearGradient958"
       id="linearGradient967-45"
       gradientUnits="userSpaceOnUse"
       x1="1109.5995"
       y1="2839.0029"
       x2="1109.5995"
       y2="2130.667"
       gradientTransform="matrix(0.26458333,0,0,0.26458333,-1.13e-4,-1.31e-4)" />
    <linearGradient
       id="linearGradient958"
       inkscape:collect="always">
      <stop
         id="stop954"
         offset="0"
         style="stop-color:#ffb380;stop-opacity:1;" />
      <stop
         id="stop956"
         offset="1"
         style="stop-color:#ff9955;stop-opacity:1" />
    </linearGradient>
    <linearGradient
       y2="1081.1722"
       x2="517.87946"
       y1="751.15277"
       x1="517.87946"
       gradientTransform="translate(-1.13e-4,-3.1e-5)"
       gradientUnits="userSpaceOnUse"
       id="linearGradient1003-2"
       xlink:href="#linearGradient1069"
       inkscape:collect="always" />
    <linearGradient
       inkscape:collect="always"
       id="linearGradient1069">
      <stop
         style="stop-color:#ffb380;stop-opacity:1;"
         offset="0"
         id="stop1065" />
      <stop
         style="stop-color:#ffd9bf;stop-opacity:1"
         offset="1"
         id="stop1067" />
    </linearGradient>
    <linearGradient
       y2="755.83771"
       x2="505.67395"
       y1="574.78296"
       x1="505.67395"
       gradientTransform="translate(3947.9341,866.35311)"
       gradientUnits="userSpaceOnUse"
       id="linearGradient3237"
       xlink:href="#linearGradient1841"
       inkscape:collect="always" />
    <linearGradient
       id="linearGradient1841"
       inkscape:collect="always">
      <stop
         id="stop1837"
         offset="0"
         style="stop-color:#3e9646;stop-opacity:1" />
      <stop
         id="stop1839"
         offset="1"
         style="stop-color:#20ac0f;stop-opacity:1" />
    </linearGradient>
    <mask
       id="mask3273"
       maskUnits="userSpaceOnUse">
      <path
         sodipodi:nodetypes="sccccsss"
         d="m 3105.8443,1389.9659 c -133.0275,0.2098 -273.5088,27.0666 -273.5088,27.0666 v 516.2614 h 1000.0001 v -516.2614 c 0,0 -119.1715,-6.7308 -175.9416,-5.0725 -126.8375,3.7049 -227.8107,7.3961 -367.1845,-1.2788 -48.728,-3.0329 -116.069,-20.8214 -183.3652,-20.7153 z"
         style="font-variation-settings:normal;display:inline;opacity:1;vector-effect:none;fill:url(#linearGradient3277);fill-opacity:1;stroke:none;stroke-width:0.264999;stroke-linecap:butt;stroke-linejoin:miter;stroke-miterlimit:4;stroke-dasharray:none;stroke-dashoffset:0;stroke-opacity:1;stop-color:#000000;stop-opacity:1"
         id="path3275" />
    </mask>
    <linearGradient
       y2="738.0932"
       x2="-115.5986"
       y1="738.0932"
       x1="-1115.5988"
       gradientTransform="translate(3947.9342,866.35312)"
       gradientUnits="userSpaceOnUse"
       id="linearGradient3277"
       xlink:href="#linearGradient1218"
       inkscape:collect="always" />
    <linearGradient
       y2="1081.1722"
       x2="517.87946"
       y1="783.61523"
       x1="517.87946"
       gradientTransform="translate(3947.9341,866.35311)"
       gradientUnits="userSpaceOnUse"
       id="linearGradient3239"
       xlink:href="#linearGradient1069-7"
       inkscape:collect="always" />
    <linearGradient
       inkscape:collect="always"
       id="linearGradient1069-7">
      <stop
         style="stop-color:#187f22;stop-opacity:1"
         offset="0"
         id="stop1065-4" />
      <stop
         style="stop-color:#12ab00;stop-opacity:1"
         offset="1"
         id="stop1067-9" />
    </linearGradient>
    <mask
       id="mask3267"
       maskUnits="userSpaceOnUse">
      <path
         sodipodi:nodetypes="sccccsss"
         d="m 3105.8443,1389.9659 c -133.0275,0.2098 -273.5088,27.0666 -273.5088,27.0666 v 516.2614 h 1000.0001 v -516.2614 c 0,0 -119.1715,-6.7308 -175.9416,-5.0725 -126.8375,3.7049 -227.8107,7.3961 -367.1845,-1.2788 -48.728,-3.0329 -116.069,-20.8214 -183.3652,-20.7153 z"
         style="font-variation-settings:normal;display:inline;opacity:1;vector-effect:none;fill:url(#linearGradient3277);fill-opacity:1;stroke:none;stroke-width:0.264999;stroke-linecap:butt;stroke-linejoin:miter;stroke-miterlimit:4;stroke-dasharray:none;stroke-dashoffset:0;stroke-opacity:1;stop-color:#000000;stop-opacity:1"
         id="path3269" />
    </mask>
  </defs>
  <sodipodi:namedview
     inkscape:window-maximized="1"
     inkscape:window-y="-8"
     inkscape:window-x="-8"
     inkscape:window-height="1017"
     inkscape:window-width="1920"
     inkscape:snap-page="true"
     inkscape:snap-bbox="true"
     showgrid="false"
     inkscape:document-rotation="0"
     inkscape:current-layer="layer1"
     inkscape:document-units="mm"
     inkscape:cy="2646.2303"
     inkscape:cx="1948.5714"
     inkscape:zoom="0.175"
     inkscape:pageshadow="2"
     inkscape:pageopacity="0.0"
     borderopacity="1.0"
     bordercolor="#666666"
     pagecolor="#ffffff"
     id="base" />
  <metadata
     id="metadata1104">
    <rdf:RDF>
      <cc:Work
         rdf:about="">
        <dc:format>image/svg+xml</dc:format>
        <dc:type
           rdf:resource="http://purl.org/dc/dcmitype/StillImage" />
        <dc:title></dc:title>
      </cc:Work>
    </rdf:RDF>
  </metadata>
  <g
     id="layer1"
     inkscape:groupmode="layer"
     inkscape:label="Layer 1">
    <path
       sodipodi:nodetypes="cccccccc"
       id="path3279"
       d="m 994.0117,455.08956 -105.22878,8.0299 -83.39392,14.4252 -58.3833,34.4312 -38.92209,67.3652 273.9521,2.994 10.47901,-86.8263 z"
       style="display:inline;fill:#185800;fill-opacity:1;stroke:none;stroke-width:0.264583px;stroke-linecap:butt;stroke-linejoin:miter;stroke-opacity:1" />
    <path
       sodipodi:nodetypes="sccccsss"
       d="M 273.50879,536.67206 C 140.4812,536.88186 -1.01e-4,563.73866 -1.01e-4,563.73866 V 1080 H 1000 V 563.73866 c 0,0 -119.17149,-6.7308 -175.9415,-5.0725 -126.83749,3.7049 -227.8108,7.3961 -367.18441,-1.2788 -48.72828,-3.0329 -116.06908,-20.8214 -183.3653,-20.7153 z"
       style="display:inline;fill:url(#linearGradient967-45);fill-opacity:1;stroke:none;stroke-width:0.264583px;stroke-linecap:butt;stroke-linejoin:miter;stroke-opacity:1"
       id="path112-3" />
    <path
       sodipodi:nodetypes="cssacccc"
       id="path117-91"
       d="m -1.01e-4,751.15247 c 0,0 136.923301,21.80188 229.677901,26.21878 92.75452,4.41691 180.5411,-37.91458 273.84659,-32.02238 42.19171,2.6644 141.88991,-15.54761 213.11471,-15.45911 C 811.35821,730.00745 1000,751.15247 1000,751.15247 V 1080 H -1.01e-4 Z"
       style="display:inline;fill:url(#linearGradient1003-2);fill-opacity:1;stroke:none;stroke-width:0.264999;stroke-linecap:butt;stroke-linejoin:miter;stroke-miterlimit:4;stroke-dasharray:none;stroke-opacity:1" />
    <path
       transform="translate(-2832.3356,-853.29364)"
       mask="url(#mask3273)"
       id="path112-3-1"
       style="font-variation-settings:normal;display:inline;opacity:1;vector-effect:none;fill:url(#linearGradient3237);fill-opacity:1;stroke:none;stroke-width:0.264999;stroke-linecap:butt;stroke-linejoin:miter;stroke-miterlimit:4;stroke-dasharray:none;stroke-dashoffset:0;stroke-opacity:1;stop-color:#000000;stop-opacity:1"
       d="m 3105.8443,1389.9659 c -133.0275,0.2098 -273.5088,27.0666 -273.5088,27.0666 v 516.2614 h 1000.0001 v -516.2614 c 0,0 -119.1715,-6.7308 -175.9415,-5.0725 -126.8375,3.7049 -227.8108,7.3961 -367.1845,-1.2788 -48.7282,-3.0329 -116.069,-20.8214 -183.3653,-20.7153 z"
       sodipodi:nodetypes="sccccsss" />
    <path
       transform="translate(-2832.3356,-853.29364)"
       mask="url(#mask3267)"
       style="font-variation-settings:normal;display:inline;opacity:1;vector-effect:none;fill:url(#linearGradient3239);fill-opacity:1;stroke:none;stroke-width:0.264999;stroke-linecap:butt;stroke-linejoin:miter;stroke-miterlimit:4;stroke-dasharray:none;stroke-dashoffset:0;stroke-opacity:1;stop-color:#000000;stop-opacity:1"
       d="m 2832.3355,1604.4463 c 0,0 136.9233,21.8019 229.6779,26.2188 92.7545,4.4169 180.5411,-37.9146 273.8465,-32.0224 42.1918,2.6644 141.89,-15.5476 213.1148,-15.4591 94.7191,0.1177 283.3609,21.2627 283.3609,21.2627 v 328.8476 H 2832.3355 Z"
       id="path117-91-1"
       sodipodi:nodetypes="cssacccc" />
    <path
       id="path2605"
       d="m 964.9097,571.14036 11.5429,-6.9257 11.54282,-89.1108 15.69828,-2.3086 3.232,90.9577 8.3109,6.464 z"
       style="display:inline;fill:#8f5e0d;fill-opacity:1;stroke:none;stroke-width:0.264583px;stroke-linecap:butt;stroke-linejoin:miter;stroke-opacity:1" />
    <path
       sodipodi:nodetypes="ccccccccccc"
       id="path2607"
       d="m 996.3063,484.33816 -23.08569,8.3108 -24.93261,-16.16 12.00462,-22.624 -6.46401,-27.2411 12.46629,-29.5497 32.78172,-5.5406 11.54278,26.3177 25.3943,17.0834 -6.0023,34.6286 z"
       style="display:inline;fill:#1e7300;fill-opacity:1;stroke:none;stroke-width:0.264583px;stroke-linecap:butt;stroke-linejoin:miter;stroke-opacity:1" />
    <path
       style="display:inline;fill:#8f5e0d;fill-opacity:1;stroke:none;stroke-width:0.264583px;stroke-linecap:butt;stroke-linejoin:miter;stroke-opacity:1"
       d="m 509.97419,563.96686 14.77492,-5.5406 8.7726,-78.4914 h 12.92789 l 4.61711,78.0297 11.5429,5.5406 z"
       id="path2601-1"
       sodipodi:nodetypes="ccccccc" />
    <path
       id="path2603-5"
       d="m 557.2999,490.09256 -22.1623,-8.3108 -14.31308,8.3108 -22.62402,-20.7771 11.5429,-15.6983 -8.77261,-15.6983 24.00912,-15.6983 36.0137,-0.4617 6.46399,18.9303 17.0834,3.232 -10.1577,24.4708 5.54062,20.7772 z"
       style="display:inline;fill:#1d6f00;fill-opacity:1;stroke:none;stroke-width:0.264583px;stroke-linecap:butt;stroke-linejoin:miter;stroke-opacity:1" />
  </g>
</svg>
