<?xml version="1.0" encoding="UTF-8" standalone="no"?>
<svg
   xmlns:dc="http://purl.org/dc/elements/1.1/"
   xmlns:cc="http://creativecommons.org/ns#"
   xmlns:rdf="http://www.w3.org/1999/02/22-rdf-syntax-ns#"
   xmlns:svg="http://www.w3.org/2000/svg"
   xmlns="http://www.w3.org/2000/svg"
   xmlns:xlink="http://www.w3.org/1999/xlink"
   xmlns:sodipodi="http://sodipodi.sourceforge.net/DTD/sodipodi-0.dtd"
   xmlns:inkscape="http://www.inkscape.org/namespaces/inkscape"
   sodipodi:docname="ForestDesert2.svg"
   inkscape:version="1.0 (4035a4fb49, 2020-05-01)"
   id="svg1107"
   version="1.1"
   viewBox="0 0 1000 1080"
   height="1080mm"
   width="1000mm">
  <defs
     id="defs1101">
    <mask
       maskUnits="userSpaceOnUse"
       id="mask1673-0">
      <path
         style="font-variation-settings:normal;display:inline;opacity:1;vector-effect:none;fill:url(#linearGradient1671);fill-opacity:1;stroke:none;stroke-width:0.264999;stroke-linecap:butt;stroke-linejoin:miter;stroke-miterlimit:4;stroke-dasharray:none;stroke-dashoffset:0;stroke-opacity:1;stop-color:#000000;stop-opacity:1"
         d="m 1000.0001,563.60679 c 174.9799,-8.22253 326.4183,-19.89166 490.7799,-19.95514 169.0951,-0.0653 338.578,13.63589 509.2201,19.95514 v 516.39351 h -1000 z"
         id="path1675-3"
         sodipodi:nodetypes="cscccc" />
    </mask>
    <linearGradient
       y2="802.37537"
       x2="-2.2737368e-13"
       y1="802.37537"
       x1="-1000"
       gradientTransform="translate(2000.0001,2.8329996e-4)"
       gradientUnits="userSpaceOnUse"
       id="linearGradient1671"
       xlink:href="#linearGradient1218"
       inkscape:collect="always" />
    <linearGradient
       inkscape:collect="always"
       id="linearGradient1218">
      <stop
         style="stop-color:#000000;stop-opacity:1;"
         offset="0"
         id="stop1214" />
      <stop
         style="stop-color:#ffffff;stop-opacity:1"
         offset="1"
         id="stop1216" />
    </linearGradient>
    <mask
       maskUnits="userSpaceOnUse"
       id="mask1667-7">
      <path
         style="font-variation-settings:normal;display:inline;opacity:1;vector-effect:none;fill:url(#linearGradient1671);fill-opacity:1;stroke:none;stroke-width:0.264999;stroke-linecap:butt;stroke-linejoin:miter;stroke-miterlimit:4;stroke-dasharray:none;stroke-dashoffset:0;stroke-opacity:1;stop-color:#000000;stop-opacity:1"
         d="m 1000.0001,563.60679 c 174.9799,-8.22253 326.4183,-19.89166 490.7799,-19.95514 169.0951,-0.0653 338.578,13.63589 509.2201,19.95514 v 516.39351 h -1000 z"
         id="path1669-7"
         sodipodi:nodetypes="cscccc" />
    </mask>
    <mask
       id="mask1673"
       maskUnits="userSpaceOnUse">
      <path
         sodipodi:nodetypes="cscccc"
         id="path1675"
         d="m 1000.0001,563.60679 c 174.9799,-8.22253 326.4183,-19.89166 490.7799,-19.95514 169.0951,-0.0653 338.578,13.63589 509.2201,19.95514 v 516.39351 h -1000 z"
         style="font-variation-settings:normal;display:inline;opacity:1;vector-effect:none;fill:url(#linearGradient1671);fill-opacity:1;stroke:none;stroke-width:0.264999;stroke-linecap:butt;stroke-linejoin:miter;stroke-miterlimit:4;stroke-dasharray:none;stroke-dashoffset:0;stroke-opacity:1;stop-color:#000000;stop-opacity:1" />
    </mask>
    <mask
       id="mask1667"
       maskUnits="userSpaceOnUse">
      <path
         sodipodi:nodetypes="cscccc"
         id="path1669"
         d="m 1000.0001,563.60679 c 174.9799,-8.22253 326.4183,-19.89166 490.7799,-19.95514 169.0951,-0.0653 338.578,13.63589 509.2201,19.95514 v 516.39351 h -1000 z"
         style="font-variation-settings:normal;display:inline;opacity:1;vector-effect:none;fill:url(#linearGradient1671);fill-opacity:1;stroke:none;stroke-width:0.264999;stroke-linecap:butt;stroke-linejoin:miter;stroke-miterlimit:4;stroke-dasharray:none;stroke-dashoffset:0;stroke-opacity:1;stop-color:#000000;stop-opacity:1" />
    </mask>
    <mask
       id="mask2391"
       maskUnits="userSpaceOnUse">
      <path
         sodipodi:nodetypes="sccccsss"
         d="m 1284.5515,-173.88573 c -133.0276,0.2098 -273.5089,27.0666 -273.5089,27.0666 v 516.26131 h 1000.0001 v -516.26131 c 0,0 -136.409,-11.39431 -193.1791,-9.73601 -126.8374,3.7049 -223.5941,44.44091 -356.2981,9.73601 -47.234,-12.35269 -109.7178,-27.1727 -177.014,-27.0666 z"
         style="display:inline;fill:url(#linearGradient2395);fill-opacity:1;stroke:none;stroke-width:0.264583px;stroke-linecap:butt;stroke-linejoin:miter;stroke-opacity:1"
         id="path2393" />
    </mask>
    <linearGradient
       y2="3013.6379"
       x2="3779.5281"
       y1="3013.6379"
       x1="0"
       gradientTransform="matrix(0.26458333,0,0,0.26458333,1011.0426,-710.55786)"
       gradientUnits="userSpaceOnUse"
       id="linearGradient2395"
       xlink:href="#linearGradient1218"
       inkscape:collect="always" />
    <mask
       id="mask2385"
       maskUnits="userSpaceOnUse">
      <path
         sodipodi:nodetypes="sccccsss"
         d="m 1284.5515,-173.88573 c -133.0276,0.2098 -273.5089,27.0666 -273.5089,27.0666 v 516.26131 h 1000.0001 v -516.26131 c 0,0 -136.409,-11.39431 -193.1791,-9.73601 -126.8374,3.7049 -223.5941,44.44091 -356.2981,9.73601 -47.234,-12.35269 -109.7178,-27.1727 -177.014,-27.0666 z"
         style="display:inline;fill:url(#linearGradient2395);fill-opacity:1;stroke:none;stroke-width:0.264583px;stroke-linecap:butt;stroke-linejoin:miter;stroke-opacity:1"
         id="path2387" />
    </mask>
    <mask
       maskUnits="userSpaceOnUse"
       id="mask2857-6">
      <path
         id="path2859-5"
         style="font-variation-settings:normal;display:inline;opacity:1;vector-effect:none;fill:url(#linearGradient2855);fill-opacity:1;stroke:none;stroke-width:0.264999;stroke-linecap:butt;stroke-linejoin:miter;stroke-miterlimit:4;stroke-dasharray:none;stroke-dashoffset:0;stroke-opacity:1;stop-color:#000000;stop-opacity:1"
         d="M -4065.1732,-429.72622 V 86.53499 h 1000.0002 v -516.26121 c 0,0 -28.7433,6.36238 -85.5134,8.02058 -126.8375,3.7049 -235.8816,-42.42176 -398.7554,-45.90487 -177.4478,13.50719 -337.702,27.50193 -515.7314,37.88429 z"
         sodipodi:nodetypes="ccccscc" />
    </mask>
    <linearGradient
       y2="863.70721"
       x2="-73.293999"
       y1="863.70721"
       x1="926.70599"
       gradientTransform="translate(-3991.8791,-990.73237)"
       gradientUnits="userSpaceOnUse"
       id="linearGradient2855"
       xlink:href="#linearGradient1218"
       inkscape:collect="always" />
    <mask
       maskUnits="userSpaceOnUse"
       id="mask2851-6">
      <path
         id="path2853-8"
         style="font-variation-settings:normal;display:inline;opacity:1;vector-effect:none;fill:url(#linearGradient2855);fill-opacity:1;stroke:none;stroke-width:0.264999;stroke-linecap:butt;stroke-linejoin:miter;stroke-miterlimit:4;stroke-dasharray:none;stroke-dashoffset:0;stroke-opacity:1;stop-color:#000000;stop-opacity:1"
         d="M -4065.1732,-429.72622 V 86.53499 h 1000.0002 v -516.26121 c 0,0 -28.7433,6.36238 -85.5134,8.02058 -126.8375,3.7049 -235.8816,-42.42176 -398.7554,-45.90487 -177.4478,13.50719 -337.702,27.50193 -515.7314,37.88429 z"
         sodipodi:nodetypes="ccccscc" />
    </mask>
    <mask
       id="mask3273"
       maskUnits="userSpaceOnUse">
      <path
         sodipodi:nodetypes="sccccsss"
         d="m 3105.8443,1389.9659 c -133.0275,0.2098 -273.5088,27.0666 -273.5088,27.0666 v 516.2614 h 1000.0001 v -516.2614 c 0,0 -119.1715,-6.7308 -175.9416,-5.0725 -126.8375,3.7049 -227.8107,7.3961 -367.1845,-1.2788 -48.728,-3.0329 -116.069,-20.8214 -183.3652,-20.7153 z"
         style="font-variation-settings:normal;display:inline;opacity:1;vector-effect:none;fill:url(#linearGradient3277);fill-opacity:1;stroke:none;stroke-width:0.264999;stroke-linecap:butt;stroke-linejoin:miter;stroke-miterlimit:4;stroke-dasharray:none;stroke-dashoffset:0;stroke-opacity:1;stop-color:#000000;stop-opacity:1"
         id="path3275" />
    </mask>
    <linearGradient
       y2="738.0932"
       x2="-115.5986"
       y1="738.0932"
       x1="-1115.5988"
       gradientTransform="translate(3947.9342,866.35312)"
       gradientUnits="userSpaceOnUse"
       id="linearGradient3277"
       xlink:href="#linearGradient1218"
       inkscape:collect="always" />
    <mask
       id="mask3267"
       maskUnits="userSpaceOnUse">
      <path
         sodipodi:nodetypes="sccccsss"
         d="m 3105.8443,1389.9659 c -133.0275,0.2098 -273.5088,27.0666 -273.5088,27.0666 v 516.2614 h 1000.0001 v -516.2614 c 0,0 -119.1715,-6.7308 -175.9416,-5.0725 -126.8375,3.7049 -227.8107,7.3961 -367.1845,-1.2788 -48.728,-3.0329 -116.069,-20.8214 -183.3652,-20.7153 z"
         style="font-variation-settings:normal;display:inline;opacity:1;vector-effect:none;fill:url(#linearGradient3277);fill-opacity:1;stroke:none;stroke-width:0.264999;stroke-linecap:butt;stroke-linejoin:miter;stroke-miterlimit:4;stroke-dasharray:none;stroke-dashoffset:0;stroke-opacity:1;stop-color:#000000;stop-opacity:1"
         id="path3269" />
    </mask>
    <linearGradient
       gradientTransform="matrix(-0.26458333,0,0,0.26458333,1000,-2.6e-4)"
       y2="2130.667"
       x2="1109.5995"
       y1="2839.0029"
       x1="1109.5995"
       gradientUnits="userSpaceOnUse"
       id="linearGradient967-45-7"
       xlink:href="#linearGradient958"
       inkscape:collect="always" />
    <linearGradient
       id="linearGradient958"
       inkscape:collect="always">
      <stop
         id="stop954"
         offset="0"
         style="stop-color:#ffb380;stop-opacity:1;" />
      <stop
         id="stop956"
         offset="1"
         style="stop-color:#ff9955;stop-opacity:1" />
    </linearGradient>
    <linearGradient
       inkscape:collect="always"
       xlink:href="#linearGradient1069"
       id="linearGradient1003-2-3"
       gradientUnits="userSpaceOnUse"
       gradientTransform="matrix(-1,0,0,1,1000,-2.6e-4)"
       x1="517.87946"
       y1="751.15277"
       x2="517.87946"
       y2="1081.1722" />
    <linearGradient
       inkscape:collect="always"
       id="linearGradient1069">
      <stop
         style="stop-color:#ffb380;stop-opacity:1;"
         offset="0"
         id="stop1065" />
      <stop
         style="stop-color:#ffd9bf;stop-opacity:1"
         offset="1"
         id="stop1067" />
    </linearGradient>
    <linearGradient
       y2="755.83771"
       x2="505.67395"
       y1="574.78296"
       x1="505.67395"
       gradientTransform="translate(-2071.6824,-808.37766)"
       gradientUnits="userSpaceOnUse"
       id="linearGradient3694"
       xlink:href="#linearGradient1841"
       inkscape:collect="always" />
    <linearGradient
       id="linearGradient1841"
       inkscape:collect="always">
      <stop
         id="stop1837"
         offset="0"
         style="stop-color:#3e9646;stop-opacity:1" />
      <stop
         id="stop1839"
         offset="1"
         style="stop-color:#20ac0f;stop-opacity:1" />
    </linearGradient>
    <mask
       id="mask3688"
       maskUnits="userSpaceOnUse">
      <path
         id="path3690"
         style="display:inline;fill:url(#linearGradient3692);fill-opacity:1;stroke:none;stroke-width:0.264583px;stroke-linecap:butt;stroke-linejoin:miter;stroke-opacity:1"
         d="m -2442.8257,-233.86695 c 133.0276,0.2098 255.5448,-23.8316 255.5448,-23.8316 v 516.26144 h -1000 v -516.26144 c 0,0 119.1715,-6.7308 175.9413,-5.0725 126.8375,3.7049 241.0846,-8.08857 361.1965,0.21825 69.5979,4.81332 140.0212,28.57975 207.3174,28.68585 z"
         sodipodi:nodetypes="sccccsss" />
    </mask>
    <linearGradient
       y2="3029.1348"
       x2="3779.5288"
       y1="3029.1348"
       x1="0.00075590552"
       gradientTransform="matrix(-0.26458333,0,0,0.26458333,-2187.2807,-821.43732)"
       gradientUnits="userSpaceOnUse"
       id="linearGradient3692"
       xlink:href="#linearGradient1218"
       inkscape:collect="always" />
    <linearGradient
       y2="1081.1722"
       x2="517.87946"
       y1="783.61523"
       x1="517.87946"
       gradientTransform="translate(-2071.6824,-808.37766)"
       gradientUnits="userSpaceOnUse"
       id="linearGradient3696"
       xlink:href="#linearGradient1069-7"
       inkscape:collect="always" />
    <linearGradient
       inkscape:collect="always"
       id="linearGradient1069-7">
      <stop
         style="stop-color:#187f22;stop-opacity:1"
         offset="0"
         id="stop1065-4" />
      <stop
         style="stop-color:#12ab00;stop-opacity:1"
         offset="1"
         id="stop1067-9" />
    </linearGradient>
    <mask
       id="mask3682"
       maskUnits="userSpaceOnUse">
      <path
         id="path3684"
         style="display:inline;fill:url(#linearGradient3692);fill-opacity:1;stroke:none;stroke-width:0.264583px;stroke-linecap:butt;stroke-linejoin:miter;stroke-opacity:1"
         d="m -2442.8257,-233.86695 c 133.0276,0.2098 255.5448,-23.8316 255.5448,-23.8316 v 516.26144 h -1000 v -516.26144 c 0,0 119.1715,-6.7308 175.9413,-5.0725 126.8375,3.7049 241.0846,-8.08857 361.1965,0.21825 69.5979,4.81332 140.0212,28.57975 207.3174,28.68585 z"
         sodipodi:nodetypes="sccccsss" />
    </mask>
  </defs>
  <sodipodi:namedview
     inkscape:window-maximized="1"
     inkscape:window-y="-8"
     inkscape:window-x="-8"
     inkscape:window-height="1017"
     inkscape:window-width="1920"
     inkscape:snap-page="true"
     inkscape:snap-bbox="true"
     showgrid="false"
     inkscape:document-rotation="0"
     inkscape:current-layer="layer1"
     inkscape:document-units="mm"
     inkscape:cy="2646.2303"
     inkscape:cx="1948.5714"
     inkscape:zoom="0.175"
     inkscape:pageshadow="2"
     inkscape:pageopacity="0.0"
     borderopacity="1.0"
     bordercolor="#666666"
     pagecolor="#ffffff"
     id="base" />
  <metadata
     id="metadata1104">
    <rdf:RDF>
      <cc:Work
         rdf:about="">
        <dc:format>image/svg+xml</dc:format>
        <dc:type
           rdf:resource="http://purl.org/dc/dcmitype/StillImage" />
        <dc:title></dc:title>
      </cc:Work>
    </rdf:RDF>
  </metadata>
  <g
     id="layer1"
     inkscape:groupmode="layer"
     inkscape:label="Layer 1">
    <path
       style="display:inline;fill:#185800;fill-opacity:1;stroke:none;stroke-width:0.264583px;stroke-linecap:butt;stroke-linejoin:miter;stroke-opacity:1"
       d="m 5.98824,450.85604 105.2288,8.0299 83.3939,14.4252 58.3833,34.4312 38.92209,67.3652 -273.95209,2.994 -10.479,-86.8263 z"
       id="path3279-9"
       sodipodi:nodetypes="cccccccc" />
    <path
       id="path112-3-5"
       style="display:inline;fill:url(#linearGradient967-45-7);fill-opacity:1;stroke:none;stroke-width:0.264583px;stroke-linecap:butt;stroke-linejoin:miter;stroke-opacity:1"
       d="M 744.45525,587.57004 C 877.48285,587.77984 1000,563.73844 1000,563.73844 V 1080 H -6e-5 V 563.73844 c 0,0 119.1715,-6.7308 175.9415,-5.0725 126.83749,3.7049 241.0845,-8.0885 361.19641,0.2183 69.59791,4.8133 140.02118,28.5797 207.3174,28.6858 z"
       sodipodi:nodetypes="sccccsss" />
    <path
       style="display:inline;fill:url(#linearGradient1003-2-3);fill-opacity:1;stroke:none;stroke-width:0.264999;stroke-linecap:butt;stroke-linejoin:miter;stroke-miterlimit:4;stroke-dasharray:none;stroke-opacity:1"
       d="m 1000,751.15235 c 0,0 -136.92326,21.8019 -229.67787,26.2188 -92.7545,4.4169 -180.54108,-37.9146 -273.84658,-32.02241 -42.1917,2.6644 -141.8899,-15.54761 -213.11471,-15.4591 C 188.64174,730.00735 -6e-5,751.15235 -6e-5,751.15235 V 1080 H 1000 Z"
       id="path117-91-16"
       sodipodi:nodetypes="cssacccc" />
    <path
       transform="translate(3187.2809,821.43711)"
       mask="url(#mask3688)"
       sodipodi:nodetypes="sccccsss"
       d="m -2442.8257,-233.86695 c 133.0276,0.2098 255.5448,-23.8316 255.5448,-23.8316 V 258.56288 H -3187.281 v -516.26143 c 0,0 119.1715,-6.7308 175.9415,-5.0725 126.8375,3.7049 241.0845,-8.08857 361.1964,0.21825 69.5979,4.81332 140.0212,28.57975 207.3174,28.68585 z"
       style="font-variation-settings:normal;display:inline;opacity:1;vector-effect:none;fill:url(#linearGradient3694);fill-opacity:1;stroke:none;stroke-width:0.264999;stroke-linecap:butt;stroke-linejoin:miter;stroke-miterlimit:4;stroke-dasharray:none;stroke-dashoffset:0;stroke-opacity:1;stop-color:#000000;stop-opacity:1"
       id="path112-3-5-0" />
    <path
       transform="translate(3187.2809,821.43711)"
       mask="url(#mask3682)"
       sodipodi:nodetypes="cssacccc"
       id="path117-91-16-2"
       d="m -2187.2809,-70.284734 c 0,0 -136.9233,21.80189 -229.6779,26.2188 -92.7545,4.41691 -180.5412,-37.9146 -273.8466,-32.02238 -42.1918,2.66438 -141.89,-15.54761 -213.1148,-15.45911 -94.719,0.11769 -283.3608,21.26269 -283.3608,21.26269 V 258.56288 h 1000.0001 z"
       style="font-variation-settings:normal;display:inline;opacity:1;vector-effect:none;fill:url(#linearGradient3696);fill-opacity:1;stroke:none;stroke-width:0.264999;stroke-linecap:butt;stroke-linejoin:miter;stroke-miterlimit:4;stroke-dasharray:none;stroke-dashoffset:0;stroke-opacity:1;stop-color:#000000;stop-opacity:1" />
    <path
       sodipodi:nodetypes="ccccccc"
       id="path2601-7-4"
       d="m -25.08696,569.75614 14.7749,-5.5406 8.7726,-78.4914 h 12.9279 l 4.6171,78.0297 11.5429,5.5406 z"
       style="display:inline;fill:#8f5e0d;fill-opacity:1;stroke:none;stroke-width:0.264583px;stroke-linecap:butt;stroke-linejoin:miter;stroke-opacity:1" />
    <path
       style="display:inline;fill:#1d6f00;fill-opacity:1;stroke:none;stroke-width:0.264583px;stroke-linecap:butt;stroke-linejoin:miter;stroke-opacity:1"
       d="m 22.23874,495.88194 -22.1623,-8.3109 -14.3131,8.3109 -22.624,-20.7771 11.5429,-15.6983 -8.7726,-15.6983 24.0091,-15.6983 36.01369,-0.4618 6.46401,18.9303 17.0834,3.2321 -10.1577,24.4708 5.5406,20.7771 z"
       id="path2603-6-9" />
    <path
       style="display:inline;fill:#8f5e0d;fill-opacity:1;stroke:none;stroke-width:0.264583px;stroke-linecap:butt;stroke-linejoin:miter;stroke-opacity:1"
       d="m 745.95223,590.82174 13.3898,-3.6938 9.23422,-89.5725 18.46858,-0.4617 4.61722,90.9577 6.92568,4.1554 z"
       id="path2577-8-4" />
    <path
       style="display:inline;fill:#1e7300;fill-opacity:1;stroke:none;stroke-width:0.264583px;stroke-linecap:butt;stroke-linejoin:miter;stroke-opacity:1"
       d="m 777.34883,506.78974 -24.00909,8.3108 -29.088,-13.8514 9.696,-34.6286 22.1623,-21.7005 8.3108,-26.7795 37.8606,8.3109 12.4663,37.3988 21.70051,22.1623 -17.0834,24.0092 -28.1645,-4.6172 z"
       id="path2581-9-8" />
  </g>
</svg>
